<mxfile host="Electron" modified="2024-12-06T19:13:56.204Z" agent="Mozilla/5.0 (Windows NT 10.0; Win64; x64) AppleWebKit/537.36 (KHTML, like Gecko) draw.io/22.1.18 Chrome/120.0.6099.199 Electron/28.1.2 Safari/537.36" etag="bJOYJ9uskWKb2Mz9ga0M" version="22.1.18" type="device">
  <diagram name="Pagina-1" id="zcKAjyEIGbpKUkYhcW2T">
    <mxGraphModel dx="1562" dy="917" grid="1" gridSize="9" guides="1" tooltips="1" connect="1" arrows="1" fold="1" page="1" pageScale="1" pageWidth="1169" pageHeight="827" background="#ffffff" math="0" shadow="0">
      <root>
        <mxCell id="0" />
        <mxCell id="1" parent="0" />
        <UserObject label="https://logback.qos.ch/images/logos/Logback_72dpi.png" id="geUrxulTSK8gtvk_V5yR-217">
          <mxCell style="rounded=0;whiteSpace=wrap;html=1;fillColor=#f5f5f5;fontColor=#333333;strokeColor=#666666;" parent="1" vertex="1">
            <mxGeometry x="90" y="72" width="1062" height="693" as="geometry" />
          </mxCell>
        </UserObject>
        <mxCell id="geUrxulTSK8gtvk_V5yR-218" value="" style="rounded=0;whiteSpace=wrap;html=1;fillColor=#f5f5f5;fontColor=#333333;strokeColor=#666666;" parent="1" vertex="1">
          <mxGeometry x="315" y="108" width="810" height="531" as="geometry" />
        </mxCell>
        <mxCell id="geUrxulTSK8gtvk_V5yR-219" value="Gateway service" style="rounded=0;whiteSpace=wrap;html=1;fillColor=#f5f5f5;fontColor=#333333;strokeColor=#666666;" parent="1" vertex="1">
          <mxGeometry x="135" y="306" width="120" height="60" as="geometry" />
        </mxCell>
        <mxCell id="geUrxulTSK8gtvk_V5yR-220" value="Logbook service" style="rounded=0;whiteSpace=wrap;html=1;fillColor=#f5f5f5;fontColor=#333333;strokeColor=#666666;" parent="1" vertex="1">
          <mxGeometry x="387" y="198" width="120" height="60" as="geometry" />
        </mxCell>
        <mxCell id="geUrxulTSK8gtvk_V5yR-221" value="Product catalog service" style="rounded=0;whiteSpace=wrap;html=1;fillColor=#f5f5f5;fontColor=#333333;strokeColor=#666666;" parent="1" vertex="1">
          <mxGeometry x="387" y="324" width="120" height="60" as="geometry" />
        </mxCell>
        <mxCell id="geUrxulTSK8gtvk_V5yR-222" value="Shopping cart service" style="rounded=0;whiteSpace=wrap;html=1;fillColor=#f5f5f5;fontColor=#333333;strokeColor=#666666;" parent="1" vertex="1">
          <mxGeometry x="495" y="468" width="120" height="60" as="geometry" />
        </mxCell>
        <mxCell id="geUrxulTSK8gtvk_V5yR-223" value="Discovery service" style="rounded=0;whiteSpace=wrap;html=1;fillColor=#f5f5f5;fontColor=#333333;strokeColor=#666666;" parent="1" vertex="1">
          <mxGeometry x="333" y="675" width="120" height="60" as="geometry" />
        </mxCell>
        <mxCell id="geUrxulTSK8gtvk_V5yR-224" value="Config service" style="rounded=0;whiteSpace=wrap;html=1;fillColor=#f5f5f5;fontColor=#333333;strokeColor=#666666;" parent="1" vertex="1">
          <mxGeometry x="468" y="675" width="120" height="60" as="geometry" />
        </mxCell>
        <mxCell id="geUrxulTSK8gtvk_V5yR-226" value="Actor" style="shape=umlActor;verticalLabelPosition=bottom;verticalAlign=top;html=1;outlineConnect=0;fillColor=#0050ef;strokeColor=#001DBC;fontColor=#ffffff;" parent="1" vertex="1">
          <mxGeometry x="27" y="339" width="36" height="69" as="geometry" />
        </mxCell>
        <mxCell id="geUrxulTSK8gtvk_V5yR-227" value="&lt;font color=&quot;#000000&quot;&gt;Actor&lt;/font&gt;" style="text;html=1;align=center;verticalAlign=middle;resizable=0;points=[];autosize=1;strokeColor=none;fillColor=none;" parent="1" vertex="1">
          <mxGeometry x="18" y="414" width="54" height="27" as="geometry" />
        </mxCell>
        <mxCell id="geUrxulTSK8gtvk_V5yR-229" value="" style="endArrow=classic;html=1;rounded=0;entryX=0;entryY=0.25;entryDx=0;entryDy=0;fillColor=#0050ef;strokeColor=#001DBC;" parent="1" target="geUrxulTSK8gtvk_V5yR-220" edge="1">
          <mxGeometry width="50" height="50" relative="1" as="geometry">
            <mxPoint x="255" y="320" as="sourcePoint" />
            <mxPoint x="305" y="270" as="targetPoint" />
          </mxGeometry>
        </mxCell>
        <mxCell id="geUrxulTSK8gtvk_V5yR-230" value="" style="endArrow=classic;html=1;rounded=0;fillColor=#0050ef;strokeColor=#001DBC;" parent="1" target="geUrxulTSK8gtvk_V5yR-221" edge="1">
          <mxGeometry width="50" height="50" relative="1" as="geometry">
            <mxPoint x="255" y="320" as="sourcePoint" />
            <mxPoint x="305" y="270" as="targetPoint" />
          </mxGeometry>
        </mxCell>
        <mxCell id="geUrxulTSK8gtvk_V5yR-231" value="" style="endArrow=classic;html=1;rounded=0;entryX=0;entryY=0.5;entryDx=0;entryDy=0;fillColor=#0050ef;strokeColor=#001DBC;" parent="1" target="geUrxulTSK8gtvk_V5yR-222" edge="1">
          <mxGeometry width="50" height="50" relative="1" as="geometry">
            <mxPoint x="255" y="320" as="sourcePoint" />
            <mxPoint x="305" y="270" as="targetPoint" />
          </mxGeometry>
        </mxCell>
        <mxCell id="geUrxulTSK8gtvk_V5yR-235" value="Messaging service" style="rounded=0;whiteSpace=wrap;html=1;fillColor=#f5f5f5;fontColor=#333333;strokeColor=#666666;" parent="1" vertex="1">
          <mxGeometry x="585" y="297" width="120" height="60" as="geometry" />
        </mxCell>
        <mxCell id="geUrxulTSK8gtvk_V5yR-237" value="" style="shape=image;verticalLabelPosition=bottom;labelBackgroundColor=default;verticalAlign=top;aspect=fixed;imageAspect=0;image=data:image/png,iVBORw0KGgoAAAANSUhEUgAAApMAAACBCAYAAACclzFEAAAACXBIWXMAAAsSAAALEgHS3X78AAAY8UlEQVR4nO2dzXXbOLiGMffM3rkV2MMG5FRgpYJ4KrCy0y5OBXEqGGXnXewKRqkgcgVjN6CxK7h2BXMPPC8njCLJwgdQJIHnOUcnm4imCAJ48f3+8s/t1bFz7pUbEqOzxaDuFwAAAGAX7q7HA3tOj78652bOuZMe3EwIvwznVgEAAAB25tvAHtXN//TgJgAAAABgoCAmAQAAAMAMYhIAAAAAzCAmAQAAAMAMYhIAAAAAzCAmAQAAAMAMYhIAAAAAzCAmAQAAAMAMYhIAAAAAzCAmAQAAAMAMYhIAAAAAzCAmAQAAAMAMYhIAAAAAzCAmAQAAAMDMr5GP7s45d87jBwAAAEjCmw4e48Q5d2b9cqyYfHSjs0XkNQAAAADA04Wuursex3wdNzcAAAAAmEFMAgAAAIAZxCQAAAAAmImNmQT4iaqaHjnnmp9tPDrnbp1z98vl5T1PMx1VNX3lnDt2ztX/bqMeh8fl8vI2g58PkA1VNR3vOI89z/F2y+Ul+QywN7IXk5qEISBqAqmq6akWOf+sTyKu4/+5kajxC+Fiubx87OhnDQ696/XHj8eB5TdoHB4a43Db5cbUEMV9h7UjAj/OzPfn53C8Mo8PAy/x0a2fx4suD4o57cUNg4mV7NaKEiyT3wL//yfn3EVL95IF2txP9Xmb+Ded6PPe/fu3fPmpK+fcnI36R1bGYWwVjxs41Od5fKtq+qQNaa6x2Oemf2yYx52gDdzpUHRfb+RYe7ejd3kxkENDcnQgrz9tzuMHPeerDg6IWezFEvuLiHF60nqdFbi5YWd0soyqRWVg5Jz7w3+qavpVi+C85FHTYnbewsazjQNtSP7zRWPhReXVnv7+0KgPRc9zRZv4XO8vwvJn/Loy8mtMKe5ZWbfqeRxqfbRyqHfyTO/kld5JDuo7oEPPVayQzHENIAEHdkIL33zPQnIVL2T+rKrpfVVNJ6WNnN9oq2rqN9q/NA77EpLrqEXlY1VNZ3o/YDOHsrb/5cfQ4PLLnbr5RfZNMPxcqaqpFyR/653Yl5Bc5VAu8b/9/TCHt9Owno8iLnOe62ESMQk7oZPrWCerrjmUkClCVDZE5LeYmNSWONCGyIa0O34Mv0lUFv+85OKtBdXbXJ/Jiojs8lC+jjPm8IvECsl3OXtyEJOwMzpR9UVQuoaovM3R0qPNZ95TEbkONqQw/JjelmhlX2HVGpmVddJbtLz1vqcicpUzvZPkDTTQIQAhuQXEJATRQ0HpNMm/yd36qgf3E01VTc+VvJE6wWkfsCHtzoEOREXGnurQsXpQmmQ0j8eax+97cDu74t/JjzqkF5kQ1URzM+YQcF1CbDliEoLpqaB0WrAHvQDKGrlQ0lGXMZGxsCGFcVaooFx34DhQUspgaVgjv3UYExnLSDG+xR4K9dtjhWQRngfEJJjosaA81AI4OFeZYsduB+LS3pXRUMejA4oSlI3SVusYrIBplI4ZkjVyGx8V35uFtXhXFH7yMeISxQhJh5iEGHosKJ1KCQ1mY9YJ+M+BWyO34cdjXtqGZOCsIEvQZMv7fjjEOGjdc2yiRh85GbrXJwQJyS8Rl7groTJBE8QkRNFzQXk2hBO1RG/MCXgo+PhPMphf5mMhm/ZLm+2gNmMJkG8ZHwgPNX+zfjf1+2KF5Li0bk4ULYdovKBsnMgP1P1joc/GXs+NllTjRjvG1AvxiRbA3k1uidxZixme9TjUPbfXFoNujMNxYzzasqyMZOFou3DvgzrQtMlRi/FwVzl3g1kpB7SJ5zJBQyioncCStY27xjy+3zKPX63M4XEL7+eB1tPzHJNKGiEKVh5KFJIOMQmpkKA8Dln49X/vm5NXk3nyggsslFHfBGWiArjruFZx+Z37mm8Yh1fajNpo8Xagv9Wmxdh39diLu7ixiZ8m7Gbiu8FMMs4C3dXqeN53C2VLQvKm0UZ213n82JjDV+77QfG07jCU6N7qCgSLnDrnJGqTeFpqf3nEJCQjxcIia9XzBqJF+jzRItg3QTlLuLjXbdFmqX6brjPXp94wJwmTg7KJJ2ps4gu9t2MlkMQ+q4taFOTEhnJAm/Blgi76ukEnFpJPmm8XqUSaruPXmlnidrjvMhOStEmMhJhJ6C3eKrNcXvrT4u8STLGM+rA5J6hbVuMXsE/L5aV3Bba64Wos/Gb0WtZPK/6eX+dcd827IfWsPkTGEh9mGp8WYjHubZmgxELys3dP++zftkSa3kt/z7/J8mklqwLcibxERQtJh5iEIbBcXnpXj7dmfEqQ6PNW9d86QSVyUgjJa20+e8389QtmxIZU1Ol9ubycJUhOy6q0yAvlgDbRu+x2ifwU68iNDlfn+7K+erGqw84bwyE9x04uKdokFi0kHWIShoSE01gB6TG876KFndxMf0RexguTN7JgdOb6a2xIv+8olop0AyWodpBbm1BLLHSvygQ1LFmxccQf/Bzqak4okec4wNOQnZCkTWI6EJMwKGQZC1kANzHbZ4kabUDzyMvcyBoZk22YFG81Vvbo1y3XLTqeSL/b6qodZVab0/ru9inGdh4pJOtQj848JDX+QCpPw7st/+0pYyEZ4yX6hJD8DmISBokWwA8R936QQNyFELsBXcuK0btEBG1IpxvGo/jAdPfdCmQ9AGUTN6n3wBKv97YP9UkVphKTWHWnA2Gv5oNE0es1FvR6/uYmJFO0SSy2zeQ6EJMwWHSy33aifonRPrqNJNiABtGWqzEe9YbkN87j0oVkA+u7llvXIKsw6dQ6KTEbs170upj1mpCMLA+CtElsB8QkDBqdmGME5XmbFg+5KGM2oEEtXBqPcWPjzKZ8SCx6FpZ436wyuvWOWKozTDp2+ceUjhlEV5SGoHzIWEjGZODfICTXQ51JGDx+c9ImY0luOVBWZlvlR2YRG9AgT8DagIro4Wsgx77NFiwtROsyQXt3uapjj9W7MKj2epq/2bU8TdQmsZdlqvoAlskM8ZmPVTW9zSxwfytysVpj0t62kS2qa1rjcjgB5wku/3+xJp90FadmvV/vKu608gIkaZNYZL/tEBCTeXLR6PhSjKBUTJW1bFAbm5T1mk+cgLPF4vbPbgPTpmw5/O29TJBco9YWmRNihrslUZtEhOQLICYzQwtt7Y4pSlBqsluteScpN6mVcQil2P6usJZcxchQrJPWv/dZpbOgIxK2SWQ9fgHEZH6sLnylCcpbdcqxkDJb1Hqtz32qIwnJsRxYstzIIsoEneyrTFCEVfKhj517SiJBm0TKmgWAmMwILbDrrGGlCcoLY7Zoklp2usZbw1ef2ICyJzgxKfPNzJpMs695Yj0U7q09ImwkNtmNEIUAEJN5sW3hKy2G0roJpEh6sV7jgg0oXzT3Qi2T2zoLDZ6IMkGnba9lirWziJEb3NvdkqhNImMYAGIyL14SMcUISi0EFhdaV2LyoQ/t1aBVTg2xWyWEPFiskweJ5uo2zIfClu8LtpCgTSL9tg0gJjNBddB22ahKslBaFoRDWSRM6LuWGCs2oIzRfLMcFkrY1KyHqLY74lgqKtwQ89wdCdokfkZI2kBM5kOI+6wIQRnTaSPiz1q++7TnPuGwfywZpdclhD1ElglqpYRWxKEQ70JHJGqT2GnLziFDB5x8CF1URzrZ524Rs3TaiCkRZPnunFjJfJHbLTQhq7RkrJnRonTe0kHM1wN9E/olrJJbCX2eO9dkTdAmkX7bkSAmM0DZw5ZTdAnWMIuYHHmrbajA0zhYgr6xZmRIo8adJbN/VlJfc581W1XTG0Nt1ucyQamfleY+wjAhbQntRG0SsUhGgps7DyzWsIcSyh5ok7F0xbE8U0usZRHjUBqylNwbheSNyluVRt/LBEHPoE1if0BM5oFFxJR06rb8VsszZRwKxm9sVTWdVdX0XpYSS9eNu1Jbafa5TBD0jwRtEhGSCcHNnQeImO343/o+8DuWZ2qxZu51HNTmca+9jTcRYH17NJR5Mrs9Fa6wa/zUkT7HEZtazQOtNE1hKXWZIMJFCiFRm8QJQjIdiMk8QExux/JbLZ1wLN/Zt4t7HJnxmJKdxKTCAPYpgI86eEZYSf5lpvi1UJFwjpgsA9ok9hPc3HkQfDorLLj/UQtICJaFKjgJigUN1OUGIfl9rloSA1srEwS9I7ZNIkKyBRCTA8dYYNvSGWbotLp4GHt6lzgO8B1/wPmwXF6W7tpexZpQQ0Zu5iRqk4iQbAHE5PAh8Hw3gi2xii/cFYuYhHLxB4ljWmj+jLwmloPWifFQBwOANon9BjFZJiVmEPfRrc8JuUyeNAexRm7GKrIpE5QhvkpCpJD8gJBsF8QkQHcgJsrkQAk+96pHCSssl5dzygSB+16zNbQaR5NrPADtg5gEAOgGLyq/VNV0gXt2LRYBcBDZWx96BG0ShwNiEgCgW3wLwVuslD9xZajC4EjEyQPFrMcIya8Iyf2BmAToDtxxUFNbKYnrEpQJKhdVKbGMfc0dFur9gpgsk150QNkzfXQjWso6Qd6cISh/gDJBhUGbxGFCBxwohba70wxl4Wo7k39iKd7eM/y4vzHc0ljv2TjyGXhB6XDR/VsmqKqmNwoFCOG5TFBJzRlyQMlT88g2iQjJDkBMDpzl8tIH74f+iBItYsFiMmRB8oVwDeMQukFG49+XNgWl4pwGLSY17pZn9N93ZF2Z6GPZGBGU35kZ58oFrs7h0GiTaF0/EJIdgpu7TA5KKp+h3xq6QFnKkgQnC5DFmyf+cLFcXp7rEPPJ+CO9oCzeXUuZoPyh3/bwQUzmgaVbRElxkxZLrMU9ZlnIiJvMGG8lWS4vvYXstWK5QvnD2DI1NygTlDezyDaJpwjJbkFM5oFF+JQkJh8NVkOLm9OymJWYDFUc2ujGRkFJQg5lgrIlUZvEEru69QrEZB5YJlIxIqaxkYdsRhZhaPkOJUwKQbFcFkE5Kr0GZWSZIKyTPSVBm0T6bfcExGQeWETMqKR4PYOgtDxTi6g/JG6yHCSKLOKGntP2Z4CY7CEJ2iR+Rkj2B8RkBkgoWQLUi1pkAwTlnaWkiL7DOMBW9B6GJuUUb2HT/LLEh58Qd9ovErVJJIShRyAm88FiFStuc9pRUMbE31hccYjJ8pgZYgAJibAl4jhiJ/tDgjaJ9NvuIYjJfKDt2I7sIChj2nhZXd0sjgVhjAF8W3qpm4gyQWelP7s+kKJNIkKyn5RQtDzUnTTIrDC/yFbV9MlQIPk8cnIPEhUZH69p2/UQkxkYMQ4TsnaLY25IPjiOXaO0oVstfEPmPCTuMiLL+Dc67/xMqjaJgX/TG0v+NP49zyeV9oIXyF5MFvYiWDYnH080LrG0wgZBmUJYXxkCy4sdh4KxVmGIfUfOu+i+1AMmgUk8VjFJ5531xLRJNPXb1uH+OiJj/GNVTW9lEYct4ObOC6u1oUQrxTNrXN4pnoX1GlgmC8LY9i0qkUSu3phSLEMmKJxEBzurS52En5+JaZM4sbZJlFvcUt+15orxfBnEZEZIGFkmzajktm0NQfk1hXsqIuv0kPZ58AKxcX+lv1+hFkOrZ6vYA3piUrVJDK0z3ORAgpKY2y0gJvPDuohdlFzvUL2UUyYjWTehoscBWqd092tomaC5UYSccDCMJlm/7UbDACsjPEfbQUxmhoq4WlwzB0yWdMhFZrFOHpSYEAXtIxev1dWYEzuLPImQmAM67lE7Vyn7beta7yIu4aspkIyzAcRknlhf+BO1t4I0WMdhxDjkTwdCo3SrZE1omSBLTVCHezQaU4zkNmRsuY64xMcSy+ntAmIyQzRhLFYxz3tqHqYhwjrpGIci2Ft/fAnXEjO4NxFqnTQfDPH49ItECTmEIq2AmMyXmHidLyqZA/HECMIvCMqs2efYEr/3I0HPfrm8nEUIkLeqWTkIvCXV32/mFtXYhJw5FucfQUxmiuJDPkf8ujnxPvEoszu0cH6TGW6V/NBhbWT4YcE1JgsvB7QJS9epGEF+NgRBqXdlofdlkatgSpSQQyhSA8Rk3lwYk3GcTl9/YRmLR4XzrVYNPw5/Mg7ZYXWbWkpXYZVcT6h1chF5QO+1oGwIyfqQM8pcUMYm5JyRsf+dEtopFos/fUmEfIt4Bt7V+kpuHrAziWwl5sfhaAAdnc4T1ELMGm1A1vhFS/cby0HkaWCWl1ODpfe5TFBIxvByeXkeYVV2EiA+3u7UWoS7DRo9s1ez/WtBOUmZWd0XfH6BxtNquf9DHXKK71z2yz+3V4uIhe3Gjc6Ires5KmfwMfIuv8Z0IYD/SrN8YRzKJfId8H3jgwL/I/7etRIVBkFED+bg35mgx7STx+i0DwJN78jshd8TXfOxqqb/BH5lb32xvSCMOCD4Z3M8+H7sd9cxOuEGN3cBaEJ+jfylb51zt8Tv2UlQlsJpHO4Zh+GR4DBhqT9qFYSDqqen3snW1odBlnQJqlihfagwoouu3MhKtJnrnXxJGB/IQplrHD0JOZEgJsshthyC0wLo4/fmlEawISuItVxQTR1HuWAc+o827VkCq3SQ2zmiHNDNQK0sVrd8cNybxGtMYl3Nxy4O6fJW3etwuivZCkp5emLGoPiEHMRkITSy12IFpdMC9LfKR7QmZvy1Mz3tnSYah5N9jAPYkTXSW7LeRz7Ga4PAsyYHDHVTvDJal0xWRnl8Yj0NrnFIX7QpKnWomVTV9F4i1uKmz1lQ+tCFDxGXKDohh5jJFTRJhiRgHkPiWBLF+6xyo4V8niKWTwvqRKL1TrE6WcUIrsmcTEHScQDzuI51YDhNOM9+CxGTuo//M/yd4LjMPqFsaUsyxTuFoQQT8Tc38aB5fJXCQqw1f6JPqvcxOE6wzzGTTRKM5+tBJitFxkySzf0zs4F1irgJqZflX3Jlr6UUlCf6+Izjr7r2zhluup9j/Y7xyn3V2YRZCUpl2o8TC8rmONzo2osSMw3lVt639eSopd7Xn7FK7syFUQhMrJ1qfOhKVU1dQkF5qE3dt+67q+ex1tQX3wN5KcaNTxvvZBKh21POtXZY1+WFKm8UdaBHTBaIBOVRC5YxJ2vicxyOFtgnufnWsevmi6AMpxaWH1fGwW9IJbhicmkf+GBMhrGWAxp06z8vcHSQCh374DJBK383taCsGenzHCahv7Ep5vpVC+vIOsxW3CGgdflU66U5FKCDw2ynEDNZKIljKLdx0BA2q5+QE3OWBXQb45Ai9mob9TjQ1Wg4PFnqESpO02KNyiU8wip0og5ZSq6LibnblU3radtC8il3IVkjq2tUQs6QWmimADFZMH7jWC4vjyO7OuyTbAWlNqIU2aGQD9ZC0UWUA9qExM5eygStouYOv0eUmekrD4pdL0YgJUrIKaZzGWISnNyeQ1kAs23xpWDzNxluRBDOO5WfCaLAckCb6MQ66b6XDTreg9dnX3xVsk12HXBeQoeDGK/Rl4xrc/4AYhKeaSyAsTUQ90HOgnKhWNLYIvMwTJ6UDbpvMZRbjby91Zxchxfm8voM2dvg38UPy+Vlr1o/dsB55MEg2/7mTRCT8B9aAMdqft9361jOgtK7vU9lpbS462CY3MRYgJRUZ0kAebBYQfuMxI/FonSQ0jUpb8PrgRzSm9TWyKILcbsfC5rHdMjJvqIGYhJ+QlaRowGcqkcJ2pr1Fm+lVM2/T7i+s6a2AI0jXc3WuZCrYOjUOlnjDweNQ3rfD4feAvdG1shcS/8EQ0LOyyAmYS2yjvlT9W97yDS2cK1CztmfnDUOiMr8eNKYHiV6jy0iaPDlgDYhC6/FIjhSya7U93Olw2EfReWD4nSPS6xLuwsk5GwHMQlbkevbT4D/1cbX5SL4pMxzLyInJZ2cG+K+r5sR7M6dxtCLyItEXaOs3U1y75ZkFcqtbfororJr9/dXWSKPSsrUtpIgIWeWa0IORcthJ7TheDFzoYKuqdvFbeOrNr3iFzuNw3OrtUabtNOWulxAGu5UALnuSNTGIcjqms2iHNAm/JpRVdMLw/zwVqSLNg+sWs/qvvrne5zHd422q7iyw4npkOP3y7kK5Gd1iENM/szVwIJl974YKFj/OWBf7qDTxB1Hmi3EFvSZXo/ceH5hO5ewPFUB9OM9ifw+0+U8rv9uUN/8SP6bkwE8FiImzvtcrF9j0JzH4w2tZa086DAzb/EwswuhMfi93IcbHXJirNfHuSXl/PLP7dUiQgTcuNFZ8tgSGC4Sl0crn208aqHzC9w98Tpp0KZ0pEXrVWMzLaWdIsDgkdWy7rX9akdRvGj8e4/1EXbi7vpCPeEt3GCZhKQgBvuBLGK3BmsVAPRnHt/roM26Cr2GBBwAAAAAMIOYBAAAAAAziEkAAAAAMIOYBAAAAAAzsQk4J+7u+p+OHv8nNzrLukYaAAAAFEZ3usoMlkkAAAAAMIOYBAAAAAAziEkAAAAAMIOYBAAAAAAziEkAAAAAMIOYBAAAAAAziEkAAAAAMIOYBAAAAAAziEkAAAAAMIOYBAAAAAAziEkAAAAAMIOYBAAAAAAziEkAAAAAMIOYBAAAAAAzvzrnrpxziwE+wiHeMwAAAMA2Pg3q6Th3//9NKec3nSPimwAAAABJRU5ErkJggg==;" parent="1" vertex="1">
          <mxGeometry x="615" y="688.9499999999999" width="164" height="32.1" as="geometry" />
        </mxCell>
        <mxCell id="EWSPwg8_txmauInEYCgS-1" value="" style="shape=image;verticalLabelPosition=bottom;labelBackgroundColor=default;verticalAlign=top;aspect=fixed;imageAspect=0;image=data:image/png,iVBORw0KGgoAAAANSUhEUgAABGUAAAGhCAYAAADIqwlbAAAgAElEQVR42u3dTYhc170o+v1VVWr6ydWSwMgZKfBMkscF64zCyYOok9GNHwnm3IkcT0QgOS8zJ4FjzsAmxIOQQGy/yQ0ngaCJP0Z5JgYHHty45UHyMnhY5kHs4EE0OhYGWSqLplXdu3bdWtVddkvWR3V3Ve2P+v3AliVLqr3XWrVq//+11n9FEQAAAAAAAAAAAAAAAAAAAAAAAAAAAAAAAAAAAAAAAAAAAAAAAAAAAAAAAAAAAAAAAAAAAAAAAAAAAAAAAAAAAAAAAAAAAAAAAAAAAAAAAAAAAAAAAAAAAAAAAAAAAAAAAAAAAAAAAAAAAAAAAAAAAAAAAAAAAAAAAAAAAAAAAAAAAAAAAAAAAAAAAAAAAAAAAAAAAAAAAAAAAAAAAAAAAAAAAAAAAAAAAAAAAAAAAAAAAAAAAAAAAAAAAAAAAAAAAAAAAAAAAAAAAAAAAAAAAAAAAAAAAAAAAAAAAAAAAAAAAAAAAAAAAAAAAAAAAAAAAAAAAAAAAAAAAAAAAAAAAAAAAAAAAAAAAAAAAAAAAAAAAAAAAAAAAAAAAAAAAAAAAAAAAAAAAAAAAAAAAAAAAAAAAAAAAAAAAAAAAAAAAAAAAAAAAAAAAAAAAAAAAAAAAAAAAAAAAAAAAAAAAAAAAAAAAAAAAAAAAAAAAAAAAAAAAAAAAAAAAAAAAAANEWsCWB7dbnctyvOz+38tzbKzgyI6+cA/XOR/uu3nWXal1+td0aoAAACHIykDDTFJuGTt9hfyvPhylsaP5oPikTRJ19qd1mPzfO1iMLja3975e5YmH+aD4QdpEn08yPPLEjcAAAD3JikDNdRdXV0PK1ziOP5qSLysrBw7V+Xr3dq6dWmSsBmvuMmyy71e74aeBAAAlpmkDFRct9s9m0bRekjADIfxV+a96mVRwuqawWCwMRwO/xpW1fQ2Nzf0NgAAsEwkZaBi9idh0jRdT9L09LLce1hRM5qW3o6S6Pe9Xu+y0QAAADSZpAxUwKkTJ74bDYffXrYkzP1MVtJEcfxGXhRv2u4EAAA0jaQMlCAU5c2S5PGQiGm12+e1yIOFVTRpEr8+iKLXFQ8GAACaQFIGFmiyIkYi5mi2+zvvxkn0SytoAACAOpOUgTkLJyVlrda/2po0Hzvb26+FLU7Xrl9/RWsAAAB1IikDcxC2J6VRdCHLsmckYhYj1KDpb+e/jZLod7Y3AQAAdSApAzPU7XbPZHH8c6tiyhVWz+Q7O//hmG0AAKDKJGVgBsIWpShJf7qycuyc1qiO8QlORfETW5sAAIAqkpSBIwiFe9Mk+ZVVMdUWkjN5nv9iEEUXFQYGAACqQlIGDkEypp721Z15QXIGAAAom6QMHIBkTDNMVs583Ou9pDUAAICySMrAFNSMaSY1ZwAAgDJJysB9hNOUomJ4UTKm2bb7O+8O8u2nndYEAAAskqQM3EW3212LiujHKyudZ7XG8hgfpT0c/nuv17uiNQAAgHlLNQHcLtSNaaXpH9rt1v+hNZZsQkzT/5LG8fksa3f72/23tAgAADBPVsrAHluV2G98UtOtW0/a0gQAAMyLlTIw0j3e/Vmnlf33drv9X7QGQZwk/0ur3b6QJll6bOXYO/1+/5ZWAQAAZhp3aAKWWbfbPZtGycV2p/WY1uBerJoBAADmwUoZltbJbvfpY53O/51m6Wmtwf1YNQMAAMwl1tAELJvdk5WGr6sdw2GMj8+Oigu9Xu+y1gAAAI7CShmWymcnK6kdwyEnzSw93cqy/7OdZb2tfv//1SIAAMCh4wtNwLIYF/PttP+vsBVFa3DkyTPL/mun1fpyu9P5H7YzAQAAh2H7Eo0XtiulUbKhmC/zMC4CnOffsp0JAAA4KCtlaLRwulIny/6StbL/VWswD2HlVRrHTxw7duzDrVu3/n8tAgAATEtShsYK9WM67fb/Y7sS8zZOzKTpfwunM/W3+29pEQAAYKpYQhPQRKfW1l5ttdvntQSLtrV161KUxE/0er0bWgMAALgfSRkaJdSPyeL41xIylGnv2OyQmLmiNQAAgHuRlKExFPSlShQABgAAHkRNGRpBQV+qZlIAOEuS/6+/s3NFiwAAAJ+LGzQBdbeXkPljkqantQZVtLOz89S169df0RIAAMB+VspQaxIy1GKiTdP/1mm3P3BkNgAAcFusoAmoKwkZajXZSswAAAB3xgmagDqSkKGWE67EDAAAsD9G0ATUjYQMtZ50JWYAAIBJfKAJqBMJGRox8UrMAAAAkaQMNSIhQ6MmX4kZAAAQF2gC6kBChkZOwBIzAACw3DGBJqDqut3uWifL/iIhQxPFUfS/Z+32/+j3+1e1BgAALJdEE1BlISGTRsmGhAyNnYRHYzusAgurwbQGAAAsWTygCai0Yvh6u9N6TEPQ6In4s8TMmtYAAIDlEWsCqurU2tqrrXb7vJZgWWz3d94dRMV6r9e7oTWWyzghl+cHXy2VZVdG4+WKFgQAqCdJGSrpZLf7dLvTeVFLsGx2trdfu3bjxpNaojkmCZes3f5CnhdfztL40XxQPNJpt77U396Z6dbMlZVj0dbWrUvhv7M0+TAfDD8Y/48i/1P4obe5uaFHAACqQ1KG6gUwq6vrK6urb2kJltV2v/+jj3u9l7REfeewKMm+GZIvaZquzzrxclSTxE1I2gyHw78O8vyyZA0AQDkkZahWMNPtnnHSEkTR1ubmNwTKtZm3zqZRtD4ohk+MfnqurveRJum7cTx8L4rjN/Ki+LNtUQAA8ycpQ5UCm/FJSwr7QhQVg8HVfp7/s8C4svPV2aiI/qXTzr5ftZUws9Jpt672t/PfRkn0+9E4vKzXAQBmT1KGylDYF24XCv9+3LvuqOyKCInjLEkeHxbRvw2KwVIljyVoAADmQ1KGSjh14sR3W63Wy1oCbre11X++d7P3nJYoT9hWGRXR91ZWOs9ubd3SIFF0KcvS31y7fv0VTcEsPv/zfPCDBT/+vh0l0Qt1OOkurMrL4viZUBx8Ua85LhI+HP7QSYAN/Dw73v1ZFA2/vuj3m+cYeMC7RBNQhQeOTpb9sUp1ZMZbR7Z3/h7+O5yQosZNs+3v7zRJ16q2hW5nZ+cpAXApc9PaKBj69SgYsoLvLkINmkG+/bTaRxzl8z8qhu+U9Ahci4T36YcfHpaUDL7Uu/nJulHaHOFk00ExLOVk0yxLPcfA/d4jmoDSH+yj5GKVkh5b/f6Ju307FL4tz5Lka+FI2/Atw8rKsXN6r37ClqBBUfwhy5L386L42722Yjx86tSHVRmXaZL8ajT+3vSt5cICxbWoiH680rEy5n7GW7iS9K1Re31R7SMOpYj+pbwXX/RqgUPMRaur6yXOQZ5xGjdnj4vRl2L32Rm4F0kZyn3gON79WZVWJexsb792r8B3L+j4NPDo3fxkvOw6Gg6/HY69tZqmukK/7p0oM3ViI9TPWFlJn63C9Y/H1vbO66P/XNeb8xXe0yEJFor3SshM+SARxz8f/fBkaZ8jIYmW52fDMeTj60njR3e3esRvj3++m4B1mhQAUM1nKU1AaQ/Sq6vroUZDpS5qFLgf5LfvLcV8ZRLMhQSNYsXVMAqox3UvDpKIuU0S/W7078qMz7AyK03ipz/u9V7Su/MJ7MdblfLB+TwaaJAamMy54+1lSTr6leH41/PBcO93DMff9I/6dPyzk90T70ZRcXH0s4tWnQEAVZFoAsoKgDrHjr1ates6yn7X8Gev3bjx5Fa//8VQnDXUKdHTixXaPKyKCX0Q9sKHPjls8BW+VQ9bnap0f1mWPTMuOsts56OQIO50rqsdc0gHTGYfVUjGhO2FeT54+SB9FrZbhXoKoa93i10CAJRPUoaSoufox1Xb7jPe4jIDIZgPxQM/unbtkVCgVXJmAcNp1MYhEdbP86+ExNistimE2jOVmrDDe6YYXtTjszMOzpP0LVuVDi9sDVpIX3W7Z7rHH9oIyZiwveywf89uXw+fPdk9cXlcaBYAoMxnfE3AwoOgKm5bCubwbW9YqSE5Mz/7kzEhETbzLQlJ9Puq3XPYxhROUND7Rw7w106trb0agnOtcXidduvqImq1hOTJSqfzj2iGxUfHhYqL4TvjbVAAACWRlGHh0qxdyZoY8/y2V3JmtuaejNkTTmaqYn/tbWNaMxIOHeCvpVGyYbvS0Q0Gg40F9FdIyLwzr9VMYeWNxAwAUBZJGRYbDFXstKX9Qf4ivu0NyZmQSFBz5vDCNrNRG/7zPJMxiw46Dzxxp+npUJTWaDhUgD9OyIxXSXBkw+Hwr3Pur7kmZCYkZgCAsjh9iUUGQ2c6Wfb9Kl7bIgPvvUTCc6P2+F02GPy8jNOaQkKov73z97v/391jZEfh1tfv9n877daXyqgHFE5TipL46bB6ZZGvmw+GH7QqOGbDuOmurv5Hb3Nzw+wy9RwkITPruTOKNubcXxcXVe+n1Wq9PHpNR2cDAAslKcPiBlsc/7xqxX0n5v1t793sPfg/GQLrcBLVrNomnBg0CjpvfJpcKfI/7XZAdmXWwcZ4C02ejwtlpll2dlBEJ7M0fjQfFI+E2iezeI2QQBoUxU96Nz95pZTBMW6/TiXrjoxPMNvcfMTsMnWALyEzQ6P3eHT1o4/mlyQtoh8PosX1117y5+Lon3W9CwAsLE7WBCwkIFpdXS9jRci0Bnl+uazXHq90GAXWYWvXQQogh+RLHA/fCys5xomDOSRdHnjtu6t+NvZ+unHb/7v5yadJm5CwieP4qwdN1oStSvlw+MNFbFO69yyZXa7quA2JvDBuwlYus8x95h8JmbmY1Yl19+izM1FRShHmc+Hzygo0AGBh4YYmYBGqWty3SoH3OLBOur8LRx7fmbgYrxYZDDYmCZi6BAz7kjYbn93nOFlzNo2i9ZCoSdN0/c5VQuPtVbduPVmF+wz30Dl16mpVV3l12tn3R+35QqmJq6p/0MXxr/OBhMysjeej+fXZz/NoWM6NJelPI6tlAIBFPatqAuYtFE9stVqVDoiqEtDurXRZT5P46ZCwCNuqQs2GRddRWcB9hvv59J7Ct+JZknwtGg6/PQ70kuiF3uZmZZIMof7Oyko1kzLjor+DQSj6+6TZ5vPCSiKnLM3JZGvkrPus210ruc/OhcRx0+ZdAKCaJGWYb0AUtg0kya+qfI3jArIV83Gv99IyjZO9ZFT455UqXl+WJh9Wuf3GRX+73X9XoPSO+Wd1dT2Khs9qiTm9b+e0ki1LksfzYlDuzRXRv0T7EscAAPPiSGzm/WD746pu+4BpzXObxswC2Tj+uZ76TEgIr6yuvqUl5mZ+yezh8Ntl31yaJN/RxQDAQp7jNQHzDIqqegT2bW+Ciq+CgGk4IvsOxfD1RR2lvJz2Tnebg1BnKh8Upd7doopCh21SUZ6vLe4Db/EF4QGAB3w8awLmFxTVY5VMHVZBUK40iT6uxYUqUDp2stt9elAMzxm584ztk/fn9Xf3t3cq8bkx71OYuscf2ojCOE3SBX4uD0Odpeed2AYAFXqE1wTM5WEzrJJpV3+VDEyjzCPTDyKc2rVbR2W55552p/OiUTtfeVG8qRWOrKTE4fDrmh4AqkNShvlQSwZKkbVa/7rU9x/Hv7Ztab7SJH13XifWLXtSEQBYPpIyzP6h2ioZKM3eSUxnlnLuGQX0jr+ev0FR/GFuf3mWXdHCAMAykZRh5tIoumCVDE2StdtfqNX1LutJTLs1dZj3+JpjPRlFaAGApXuE1QTM/oE9e6ZW15vGj+o17ifPiy/X6XqXcbXM3rYXxX0X8X4oij8vyYfZFb0NAMz9kUMTMEunTpz4bt1WyeSD4hE9R+MU0fdG/16aE1Y6x4692t/eacS9hJotg2Jw47Zjp4v8T1P92Sw7Oyiik5/9ym5R10679aVZnGo0+nuufnTt2pU5N8GlqOQE28rKsejqRx9dMZEAAPMmKcNM5fngB61WS0PQrImyhqupQl2nbrf7wrwKslZJWCVTlWOUD95PrauDwWAjiuM38qL426i/jnrS18Z926rbPTuaqNeiJPtmGNfDYfyVQTF4bNq/fHytcxeSUeUeab6zvf2amQ8AWEisoQmYWWA0ethf6XRqt30gHCPcu/mJDuSewmqquqUaw4q1rCgeH/3nK43voJrVkgmJmP52/tsoiX7/0bVrCz1ufV/SZ2Pf3L2WJcnjYZtemiTfuV+SZjgc/nX+/Rn9PiqiZ0vtpDh+w8wHACyCpAyzG0xx/Exdrz0EJcuwooBDB9FfquN1D4vo36KGJ2VqVkvmUlQMfvrRtU82qnRRe3PfZJw8F+oRZUnytWg4/Pb+06zClp6tfv/iAq7n8sOnTl0ta/XT3n2+aeYDABZBoV9mExh1u2tpmq7X9gby/Kxe5F5ju66nibU7rcfG21UaLGu1/rUGlxmSMd/o3fxkvbe5uVH1iw0nIF27fv2VazduPBkl8YksS5+Kovj5rX7/i4tKXg+K4idl3f/WVv95SXoAYFEkZZhNYJQkj9f6GOwk+6Ze5K5qnrCr8wq2BwkJs/0rOaomrLgICY26JGPuJiQnQoKmd7P33CKPqw6vGbZ5ldFnoyejF0x8AMDCQlFNwCzsbZOob+DqWGzuOUvWO2EXVrCF5EUTuyaNogsVvrxLW/3+iZBc8CY6nP6tW08u+jW3+/0fWSUDACw03NAEHFWoPxC2SdQ9cNWT3HVsJMl3aj3Jh4K/SfJ4Qz/CLlTxqrI0eW28OkZwfyS7q4vi5xfZbx/3ei9peQBgoU+0moAjK6Lv1f6NMApcT5048V2dyX5hhUndE45jw+G3G9g3Zw9ylPPCAvssfWpci4WZCNumQrJk3q+TJum7+XD4Qy0OACw8FtUEHFWnnX2/ETfSwMCVIwbYDVlh0mq3zzduC1MR/UvlxktIyNiuNHMhyTXPxExIyAyiwsomAKAUkjIcSfi2utYFfvc/mNvCxB3yfPCDptxLxeuvHFj1ksHx8xIy87O7+mj2W5lCskdCBgAok6QMR1PBb6sPq8wjWKnqDBk/3aCbudCUOwl1rPrbO5VJBu/WkOk95w0zX+M2LgbfmMWpTJOTsUKyR0IGACj1KV0TcBRN2bq0s739mm+5+VwQ2Otd3tnZeaoJ9xJq4zRlC1MaRU9U5VpCcK8WyQLfk5ubGx9du/ZISKgcJjkzPvI6ip93MhYAUBWSMhxaU7YubW3duqQwJ/cSAretrf7zTbiXptTIGRTDyiRltjY3v2GlRTnvy5CciZL4n/a2NV261+8NNWPCaqaQyLn60UdxWHGjzwCAyjyjawIOrQFbl4rB4Oroof4Jncn97G5NeejrKyvHztX6RnaLWTdhdUAl+iEE+tdufrLhHVLie7PXuzz64fL+X+uurq6P/9/4SG0AgGqzUoZDS5PkO3W/h/6tW+oJMOVsGV8YJ/FqLJzCVPduqMrR9Xvblv7dG6N6QjJGQgYAqE2YoQk4jFBoM9SoqPM9hC0pHtyZOtDr9a40oRh0VZIah5XnxZcrM3+MxoR3BgAARyEpw6FkSfK1Ol9/WPHgtBQOKtSxCEWh63wPVUlqHN7w62VfwbhYbBK94B0BAMCRY2tNwOHionFtitoK25Z0IocRTtpJB4P1uha53tt2WOeEZOn1ZEJizrZHAChPWLUf5fmZe0e52Y29umNQeZIyHC6wS9P1ul77OKCybYlDCsF493j3tysr6bN1vP69o7HP1HHrzaSAa9nUkgGABXzud7trUZ6fjZLsm1kaP5oPikeiyZczxTCKkvTef3j0/7vHH9qNW5L03TgevpcPhh9kWfJ+XhRv+nKFKpGU4TAT5Jk6H4UtoOKowta3TvvU9+v6PtjbfnilbtedZtnZQXgIK9cltWQAYC4xxtroGeXxsCI/fAHc3945vZt4GUb54PCf/4NiEOpgjmth5vlg/GsnuyfeHRTFH6Ik+r0VNZT+bK4JOGRAV0vj4pw3BVQcXSj6m6Tpy3W89rrWlYnj+KvhwazU+S9Lf2P0L+zh/P5L0+fTwZeb/u1pmqRrM191ZpsAZb53S3zffrqSwxx1pDacJGLyQXE+L3aTJqP/nvNz3F6ipoieDQmaOIl+aQUNpT1fagIOrM71ZBTnZEZC0d+HT536VR1Xy9S1rsxwGH+l7GsID2xG/0Ie0s+udDrvbC14ZVQaJe+OXnt9ng/lIWANX25Mvq1dtHEgkqRvzfQvHfXTqRMnngrzotG73E6trb0aAuv7biuZtZLGXzjNsNVqvbzIeWo0L0ZZQ95rITmctVr/uj8RU5bxvFhEL48L+R/vPh/iBckZFhuiwkEfWmtaT0ZxTmb/IV7PI7L36sqs1a+9x99qlSZLE3PIoto6jp/Z2rpVyhgbf2M7y8Cj2z0TgrcQrD586tSHowDyH3k+eLlpfTa6px8YucstJFPHCZkShORIGa+56HkqvF6aJL+q8zgJ8+HJ7onLITlc1ni5X/tG0fDZlU7nerhO72oW9tyjCTjgB+5aXetoqCXDrNV5tczecuuNOj3sRyXXkxkOh3816hc0PHeLOZb01jja9r4wVtMoWg/b7Vrt9vnwkL+o5fhQ8ufK2kJXyHwumG7+awbjOit1jCFWV9c7x469Wofr3+vbl7vHH/pBlMRP+EKGeZOU4eCBXKdTu8seTa6Xejc/uaIDmf3DUV7Pk5iS7JtRjZIyZT7sT4zC6teNeD4XaNwlCbObghlGeUlBG0CVrKx0nt3aGj7b396p26WfC6tmotXVbzi5lbk+lmsCDhHI1Y7inMxxFv1dLd8TafyouWd6nXbrqlOX2C8sbT/98MPDqBi+MyiGL4Zl+FuSMACfU+e5cXztSfqW7UzMN5yAJgdyI8VgcFXxQeYlBOrb/Z1363bdda0NVZbBYLChFdivjHoSAJQj1AKTmGFeJGU4kCqcfiKYonqKi7Wb/GtXB2f49XLnPvVkuJ2EDMBykZhhXtSU4UDCqS21u+g4fkPPMU97tUZerNt1h6J7ddkj3Wm3vlTmXvRBnl820qE50iRdC3Ngpa8xy84OSi5wDtxuLzETWYXPLEnKcKAArpaTZ1G8qfeYp7CFqXPq1NW6rT7J2u0vRJubtbjW0k9ryDJJGWiQcPx5qBNR7WuUkIFKxhb54OVut/u30fOfZwNmwvYlDhbA1Uyo9eEYOxby8FzDbXJHPfp3UUYPPmtlvv5ekV/zCACw+2yQZX8s+/mE5pCUoXEB3G2BclH8Qc+xELXcJldunZYDTD5ny3z5/vbO3w1wAGDfs8HpLI5/rSWYBUkZplbHk5eyLHlfz7EIeVH8uW7XHGoq6LlpxG9rAwDgtme/QXG+ruUdqBZJGQ4y8TwiUIa7C3Vl6nbNdSncXcetkwBA83WOHXtVK3DkZ11NwNSTTrv1JYEy3NvW1q1LKyvHzmmJ2Sp76+QiV9yF/elZkjxex+2iE2kSfRxOJDP/AtB0YRvTyW736Y97vZe0Bod+1tQETKtuJ8uEAFmvsdAJNU0+rNs11+lY7LLk29v/uajXSqNkI88Hj9W5vQZFFK2sHHsx6na/KDEDQNO1O50Xu93uRYcCcOg4WxMwVeBWw+ridQyQqXnwPhh+oBUaKMsW8pAVEmTjY3obYGvrVpRG0RMGDwBNt/eZd0FLcFiSMkwZbZZ7+okAmXrE7vUrLJ1mWQ3e2+WeEtXr9S4b3Qc3KKKTWgGA5XgGzJ7RChyWpAzAjCxym4vAGQCgGkJtmVMnTnxXS3AYkjJMpY6nn4Rik3oOAACYu+Hw2xqBw5CUYSp1PAlkkOe2HMADZGn8qFa4t5WVYxoBAHhwvDQoztexDiflk5QBmJUsq10icPQA8YiOuzenuAEAUz8KJsnjWoGDkpQBmBFHIQIALDFbmDiETBMw1UCxxQEoycrKsXPhuEkAoLnSJH03jofvhRNUQ23IO0sRhBMjdw8oGJ/KeK6K97C3hemHvqjjQLG2JmDKCeaRlmYASiAhAwDN02m3rva3899mWfJ+XhRvfty7/qBExsbkP0LtljSKLoSjqMPJR5UKsHe3ML2ih5l6zGgCgNkYPSCcqds1h1UovZuf6Dw4uFBv6JxmmIjf1gbAVAFomryW7+z8x0fXPtk47N+xtxLlpfBP93j3Z1E0fLYq91fHA1Io+T2hCQBm9il8Jup0tAMsgyR+IiqiH+8toz+MUhI64USxWRewTpP49Y97vZcMCuD+c0//+SiJXrh248ZMt/b0bvaeO3XixPutVuvlKqyuTZPkO6MfntPrTEtShuYO7nb7C9HmpoYAYOb2vqU99EN39/hDwzKuOyRkejc/WdeDwOLEz2/1+y/0bs6vzsq169df6a6u/meUpG+VfbeDYvCYPucgnL5EY1k6CAAA5QorWRZR+La3ubmRJvGPqnDP3dXVdT3PtCRlAAAAqL29rZSXyr6OcFKU3mBakjIAMzLeMgcAQHmKwU/LvoTdo7thOpIyNDdATuNHtQKLZMvcfIQjM0t8eafrAECNhG1MUemrZQ5dBJ4lJClDcwPkQfGIVoD662/v/F0rAADTyrL0N2W+fqfd+pJeYFqSMgCzegCwOgsAoHThNKZwDHdZ+ts7p/UC05KUobFGE7FtByxUHVdnheNx9RwA0DQ729uvlfn63W5XsV+mIinDlOK3tQHcn6WqzeShCgDqGL7Eb5T6+nm+phOYhqQMzQ6mVlfXtQILm1DT1FLVJvJQBQD1+/guij+X+fpO5WTqsaIJaPQAD5Ph5qaGYO6sppinsFJvWNp2RPMINNKl3s1P1iv9uRK+WErSt3QVHE6v17ty+uGHw1btUl7fqZxMy0oZGs1kyMIC9yT532p53Wnyod4zjwBAE6mdRx1IyjBd4JYl79cz4HQaDgL3+173YPiB3gMAmkldTKpPUobpArft7f+s43Wnabqu91gECcA5tm3pSeHh1xd0ozf0NgB4NmS5SMrQ7AGepqe73a4incxdXROAdVgFV3ZSeFGnavV6vc2lnzMAAB24SURBVMtZmrzm3QQA9X/OyQfFI3qAqcapJmCqYGFzc2NldbWeF5/noQDrhl5kXrrd7pm6nrxU11Vwi9Tf3llY3167cePJ0Xj6xaxOfEqz9kuDYvCYXgRgGY2fc5JUQ1BpkjI0X5J9M5KUYZ4TaZJ8TSvMT0gKd48/VOo1hFNQwnUs5H57vcszu+7jqS1RAABVDlc1AdPa7u+8W88rX1A9CJZWnU/nWVSioe7SLHPkOQAAMycpw9QGxaCW37iurBw7p64M89RpZ9/XCvOVJmmpSeE4jr+qFwCgZrLsskag6iRlOEhYUtsj5bIkeVz/MQ91rieztXXrUl2uteyk8HAYf8VoB4B66fV6tvFSeZIyLIfh8NsagXlIo+iJul57liYf1udqy00Kh2K5VtwBADBrkjJMr8j/VNvAuabHFVOLafRCXa88Hww/qM17OIk+LvsarLgDAGDm0YQmYPqIJKvt8r+wveTUiRPf1YnMUti61O60HqvvWzp5vy7XOsjz8veEW3EHAMCsY1VNwLRmeUyrgIomqPPWpSAvir/V5mIrUKiv1W6fN+oBAJglSRkOpL7HYu8GVGpCMEtZlj1T5+uvU6I1FOrrtFtXy7yGra1bkRV3AADMkqQMBxLHw/fqfP1pFF3Qi8xCd3V1va6nLgV1TLAOBoON0i/CijsAqNXzmlag6iRlOGA8Mvxrna+/7isbqNBYarX+tc7XX8cEaxUKE1txBwBM+bT1tjZgGpIyHEglim0eZcAr+MsMhAK/da8vUssEawVOgAtbmJzCBADAzGJUTcBB9DY3N+p+D2mS/EpPchRZHP+87vdQxwRrVeYfcwgAALMiKcOB1bnY73jQWy3DETRhlUxQ1wRrmqSlzz/97R1zCAAAs4lPNQEHNSiKP9T9HnzTzaEVw4t1v4WtrVuXzD/mEABoujTLzpb3rBB9rAeYhqQMB5Zlyfu1H/hperp7vPszvclBhAr+KyvHztX/TmpceK4CdWUCq2UAoPoGRXSytNeueS1OFhibagIOKi+KPzfhPjrt7PthK4oeZeoxc+zYq024jzonVsO2q5WVY5W4llar9bKTmAAAOApJGQ4eFPV6V4rB4GrtB3+anm7CVhQWI6ysGo+ZBsiL4s06X//O9vZrVbiO8UlMcfxr7w4AqKrh10t76Sy7of2ZKi7VBBxGfzv/bRPuI2xFOdntPq1HuZ9ut3t2ZaXzbBPuJRTq7vV69X5IiOM3qnIp+aA4bxsTAHCn0fOW7UtMRVKGQ2lCXZnP7iV7JgTdepW7CdtTOln2x6bcTxMKdVdtpc/eNiZzCABUzzlNQNVJytCIoOhIb4I0PZ1GyUW1IbibsD2lKduW9mb939f9FsJKnyxNXqvK9YRtTCudzjvmEACojjJrR6ZJ+q4eYPrHczhkUFTnY3Xv1O60HlMbgs99mB/v/qzVbp9vyv2EWlCNWUpboS1MQUjMpFGyITEDUFoAbv7lNlmSfK2s1x4UA/VkmJqkDIeWJvHrTbqfEHyfWlt7Vc8ShDohTakj8+kDwmCw0ZR7uXb9+itVOYVp3wPYY50se89WJoAS5Lm5lzuGRPHl8l49flsPMC1JGQ4fgETR6027p3FiRtHOpRfGQKgT0rgbq9jqkqOqyilM+/W3d06HrUzmEQAoV5ok39EK1IGkDIcWjsYOJ7k07b5CMC6gWl6NTchEzaoFNb6f4fAXVbyusJUpzwcvh+1vltNTNZ1260tagUYG4FlmpQyfCvVkwgrW0i6gyP+kF5iWpAxHnXEuNvGuQlDuqOzl0+SETFhVUvujsO+wVx+nwrWths+udDrXJXmpkrCaS7KQJorj+Ktagc9ClOh7pb5+ll3RCUxLUoYjaeIWpol2p/OiGjPLo8kJmb2n1TeaeFtZlv6mytc3WTXz8KlTH4YxJhimEu+bJHlcK9A0aZquawWC8FlbZl3AUPMu7CjQE0xLUoYjaeoWpolQY6Z7/CEnqjRcSL41OSETTl1q2taliVDwt9NuXa36dYbVCSE5M145Mxpvi0jQhILDaZKauyqqzHGbJsmv9ABNM14Ftrq6riWIiujH4UuRsjTphFoWI9MEzGDmuzj614tNvbuVlWPnRkFtOFHlW405TphJ0HomjZLXW+3WY02+z3DqUtO2Lt12f0Xxk9EPtUiq7T0knt/7JzrZPfFuHA/fywfDDz7df55llx/UX+OEzr6TRkIthUERnczS+NF8UDwy+qVzUTGMBmE9I1UNIP8++uF0WcFr2KL7ca/3kp5gdlFFdiPMO6VK0p+O/r0+52eHtRD0R9FQn0/fZmcX9QwdXmul03m2zKSMk5c48PSpCThyQLS7henFJt9jkqanV9L0nbTb/ZGH2GYIKxXCt8Whbxt/sw3dujQRVsuc7J74t1IL+h12/ty95sf2JprdpdajoKZ7/KH7/8EQ+CTpvr9nNzjIB4IEph17wxe7q6uXe5ubG1qDWQhB9wPnrvk7Fz7fw+fCvJ4dwsracgP+GiqG75xaW3stHw7/fZ7bekLCLI2Si2X3T5Yl7+t0DhRragJm8CF8pYpH085DqDOzt53pjJ6vp9B3k+1Ky5CQCVuX5vVwWqkAM99WmJtaydLkw/KfAtO3FLWnacJW0VkWWA+BfjhNL9QGC3+3hMwh+2VQnI+K4T8mW3jn8Hx3tpNl71XhC5qmbhlnjh/HmoCZaPg38fuF7Uwrnc4/HHdbP6HPRh/Yfwm1gpblnvvb+W+X4T73vu23h5saBSjDD6pwHWHFzKQQtV7hqNIkrUSdwXFiZhT8H/ZLtPB8F94T4wMfiuH1cJpe2Panh2cx9xXnQ/+cfvjh4SwSNJMv28JqnCr0UXgPNHnLOPNh+xIzEb6JHz3ULcdWkD2hqnsxGHx/9GHyk2VYiVBnS7VV6U5J9Lvludf4QvgWzoinHsFr9PGgqMa17AUyIUh6Oax8DQmjsPw+397+z3u/37Jv3jHXvCAQYVAMKjMGxiszouh82DYzHA7/Osjzy+GY4ju3z4wTN3l+ZlKba/S88J2w2iIv1OSap/011rrHH3o5JDMGRfGH8f/8rMbabf0VVsOM+mota7e/kOfFlz/tqwrV9/n0HuAAJGWY4UNd/tuVlfTZZbrnEOSP/gnH3f4qFBuVnKmWpU7GjITgapmOZAz32j3efT58o2n0U/ngNQSI++oCVSxICisNovtf3+1BUBql3xn9cFbPLrtQ4HR4rkpXNEnOjMfz3Wp27dXomtTmGkjGlDMnTlNjba+vxvNTRftKPRkOFVNqAmY4mhb2jXyokxGOm5v8U/qtj4L+UKMkLAEP+/NtayrPZMlx6ItlqRtz72fj5dlWONG72XuuKsvn4QFP7o06zS8EVI4jJqwA0wosq5WVY5EvaDlcGA2zCobmXPA3JGK2+/0fbfX7Jz66du2R3s1P1if/XP3oo3j061/c2dl5qsyiwyEBEIoBh0Jje3uZfWu4IKGtQ5uHtl/6ZEy0PAV+7xocRsUF7whq8Jl5o9NuXdUSNGv+jTa0AstqWQ4+YQ4xpCZglvKdnf+Y2wd9UfwkHEd9rz3rISkUgtBrN248GRI3IYETAtNS3lhh5Uy7fX6l03knrNjYKwosQTNjoU0nJyKEtg5tvuzJmE/fi3n+iyUOdi+nSfwjo4DKB7CDgQCWxs2/WoGltYQrlJlR7KgJmOmH8ebmRhW2E4XETUjghBU1W1v958tKzozfZGl6OhQFvi1BY4n3oYWtSfsTMaFtJWJuF8b7IIouLnMbhPd/lia+scIDPCyek/BYOrYucRQK/TL7QZWlvxn9MPMib6Fga7fbfXOa0x1CXZdQQT8U2xpNkM+N/tzvou2di+E46zLbZjdBE4qXdZ5dWV2NdhNY8duhyvzekb7sM67Nk+dnd0/5GH590n+tlra5n1B0u3fTKSj5cPjDNEm/slc8EKo3RoviTa1A06RJ/PqgqFaxX5i38CWwVuDQ8bMmYNbmdTx2+PvSvNgYBerrD0rMjB4GnggBfFgxsJfIuTL65fUoin8WVlZUpa32kgznJkma7f7Ou3E8fG9ydOMyJWomR1KGBEyWxo+mabo+HkOdjjfVgd8sS3QM9n2EeWI0rsJc8I+9U2WgcmM0HNe7dzoMNMIgil4f/fCilsCzF0xHUob5fCAXxU/CUdGz/nvbndZj2/2dkJi5cN99y0n89CgIe2m8CiWJwklI4yROOJkly068X9VjksP9RbvHAZ4PyYiQqAmJpf72zt93j5kcKfI/je+lhgmbSeIlzbKz45VMafzoKBh55NMVTBIwR7Zsx2BPEfReGQ28fxqNsXckZqik3S1MkjI0at492T3xrlWKLE1AnSavXbtxw7MXhx9DmoB5mNdqmSAkLorB4I+nTpz4yb32bu4lbNbvdW3dbvdvo/D/j3WoRbK35Slc595S4N2VPlm7/VQN966udY4de3V/u9uJNFv5cPjvWuEu84HEDFV9zxbFm6EWgbFJk8RJ9MuoiF7WEnj2giniPU3AvITVMnMbuOF0o1br5e7xhzbGqy+mMD6pZ+/3hiCtn+ffKrMA8FGEo7/rWEys7u1e+XFhlcx9x95Wvx8SMxqDqo3NG2oR0LggdS/ZCE0XVsl49uLIsa0mYF5C0mDewXfY9tLJsr+EE3ke+JuL4Usrnc4/wqk9kyBtnomjeQlHfde5untd270WD8G+qXng2JOYoaJPYy8YlzRsvpVspPHCvO3Zi9k8BsAcLSL4/mzVTPdn9/+duzVZwu+fHEkdkht1emgIKyHCUb91Hxd1a/c6CO3pm5qpAoVxYiZN0ne1BgJYmGuUIdmIZy+YarqEOQff4UShRbxWOFXp1Nraq/f8DUX+p5DUuHP1Tij+u3s0dbWF6w5H/DYmCBm1u21Msxsb4eFXS0wdAF8eRMX66D8vaQ2qNCd22i1zIk2aa2+E7dZagiYKX+6EeVtLMAuSMszdIN9+elGv1Wq3z99rxUw4rejajRtPfnTt2iOfO7koiS9UPUGQ5/kvHnQUeN30b9160jtkBu24nf+2aWNjEcFC7+Yn61EUW50wvyeM32uEA76X8/xbWoEm2dtuLQFOo4QVYIOouKAlmN0jE8w7+Nnc3FjkSpTxiplpaszcHqBdCUmPqrZhSBg1YdtS2WOjicLY8E3NEcZgaLti8A0rFGZrr/DhZS1xwPE4arM0iX+kJWhWtBE/YRsTTRJWgPmMY6bTpCZgQR/IFxb5cuMaM3t1Y+5nfCLT3u8LSY9FbbU6qEYXxi0GP/UGMTZKDYQ3Nzf6ef4Vq2aOLiS3six9KqxK1BqHEz6LQlJLS9CYOTbUTOr3/0lLNNuyzFshcV7nAzeoaKisCVjQB/KVRRcx7Bw79mq321271/8PCZmVTuedldXVt052T1wOv7eKSxHDSogmT/4hIK5qMqzqwiojDwazCxomq2YUAT643W/B4+fD9lBj8uhCUktihobNsZdDwnaJbvnSsq16GyfjR5+hTV4VFeblJq5cp3ySMixytL2wyLot4ZSlLI5/fc/fkOefJmzandZj4feOT2ap2AkYoV5I04dGnES/9AY5zCBf7Aq0pQgcNjc3Pu5dPxuCB1uaHmySjNnq90/YRjf7AEdihkaN6evXX2l6YmayWjDULBtE0evL0reTLzPG29JHnwfNnLvi560CZX5hMiwq2On1bix6q0Uo/HvP+jJZdmX/T/NB8cj4Oqt2GtMSFMvMi+JN75CDcQzj/IOHsOpDcub+gcckGaPQ9JzG4SgAUGOGps2tURL/U9NWU4T7Ce/V/asFw2f0stTSiePhe/uf9yerZprw+Rn6cDfR5osH5hnuwYI/jBed8EiT5Fd328YUPiz3H9WYpcmHn70z4ieqsKVmXMR1CQqJjfebK/h7oHHhCOzFzVmT5IxtTbtLt0NbTAIPyZj5Gy+VHwWxxh8N+sy/HBK6UQNOZdqfoL7btpZlebbJB8MPPtfPm5sb4bMiJKvqmpwK826oh2RbLvMmKUMJo26xx0+HbUxREf34XgHXaLL94tbm5jfy4fCH+5MEg6hYL/uY7MFgsLEsw2L0of26N8d0wlHiguHFCnNF2NYUguOQmFimk0RC0DFerZHEXwzffi7m4TR+u7QbLvI/VTGIHY+/KH6+0mMvyw40L6VJ9LHZZTnt1vH6ZL3GqxEvTZegLnEuu/Ptuf/Lx5m/9ZP37/X/QrIqJK3C50hd+nqyNTfMu05ZYiHxqiaghA/ihR8/HY7J7na7Z+51PSGbf+cHavh5P8+/VeqKmTh+Y1nGxSDPfehNYbxtaTRetUR5wXFITFz96KM4PJA3NUGzuyojfj4koULQER6qF7pdLol+V0a7hvuu8vtrvL12vMKgesmZwxyDHmpulHcf1QmW79nfo7FYVvssqiZISGhMTr+r+lw6CdTDvBgSStMkqO+XrFh438zpmTIkWvKi+PMDPjtvhM+RycrTqMKrpEL7hi9sbVdioZ9ImoCydI8/FB42zi3q9Xa2t1+btkBXOJkpFAIOD0Rh61MaJRuhGPDCA/B+/5+WKUN/+uGHh94Z9xZWboWHV6tkKjifra6uR0n2zTRJvjMoBo/V7fpDsBHmyPDQHh6uq1CvaHfujS4MiujkIl4vrNoYRNHFury/QvtkSfL4sIj+rQJj7lLY9nuYtguft1kcPzOp67aAgOvDMM7rsh1h/IVSEX0vioZfX9RrhpWrZb0XQh3APB/8YPSf56rQ/vvnxsOOmdCHozH+89mM8fjtsH35sH0zrrM4HH57du+3+O3DJi9Cu4zm+CeiKLlQ9hwW+nl80EcS/U69PsogKUOpDxqdLPvLeHvR4pIcX3zQZHuy23263em8uC8I/lZIjHSPd38WVtwsso3Ct/HLNCbC0eRlJL/qImyzs0qmHsFylOdnQ5ImBFIh+by1datS1xhWhITCjMPh8K+j4GvD8uz6f55mSfK1EGyFAvcLGG+XQjAWVgGEQu0SxcxjTIeAPY7jry5oTN82Pw6K4g9hK6PP3MbOYeMVPuMyATVK0tJckjKUKmTsW63Wy4t6vWlWy9yZfNm/OiF8G945duzVRSSSQnG4sDx2qcbD2tqr4cPYO+Nu46H/vKW0tX7gHCdq0iw7u7vyY/db7wUkbPaWiO8F0Nvb/ynIWJ4AJ8+LL2dp/Gj4VnwUgHypv71zoM+u3eB0cGNfAuZvEniUNKbPplG0Ppk/ZzV3ThLU40K1oZ5Ull2WZKzeHDYcxl85ymqakIAZzX9/3zeX/dmKGKpEUoalC8THR7je5wM3JF5WVlffuu3P3LFCISRuOu3s+/NIzhx1mWytP4RLWI1UB6GuUSg87UGx4eM/bIHak7XbXwgPo9P+2UnCZe8nNwTOPCDg2V3NdffBZPxQq+B9NJbPTDNvjrcoTurXZdkVQXn9Pyun+HCUZKMWJGWoxMNhJ8veW9Q2pmlWHNyZKLpXbZfJ3tyjJJXCSpzJ8sllXwYuKXP38THZQqc1AACgWSRlqEYw3u2eXel03llUkBuqvz/wmvYKd4ZvoB+0amVScHH3G5rPtiXc+fvClqS9t56l4Pdo8ztXKS277X7/R+HEAi0BAADNIylDZewvsDtvOzs7Tx1le9Bk+1L477DKJR8Of3iUFS6TgnZhr/Q0SaCmkpS5Y5we4MQwAACgfiRlqJRF1ZeZdrXM3dwtcRBqfnzcu37X/fmT47XvtU//bsWOl7Woq6TM7WNKHRkAAGi2RBNQJWHFSQhG5z7w0/R0WJlzqD+cZVfu/KVwjPPdCo91jz+0EbZlhURD+DH8/HP3nA9+8PkX2d0CxXIa1xmKigsSMgAA0GySMlRKCEJDMBqC0nm/VpZlz4yr9h/8Gq+E7U/7rzEkku48Zna86uOOujLh53cmb7I0+fDOgDxK4qeNhuU1KIqfqDUEAADNZ/sSlbSobSxH3SIy3poUjRM1l+/y/850suwv+0+V2jtJ55/vPIYxbGEKRYLHxzVG0evLekyj7UsK+wIAwDKRlKGy7lZrZR7mWUx1vBKniL63ux0pfjtKot8ta8JlqvZa8qSMwr4AALBcJGWotEUV/hUMV8MyJ2XuVywaAABoJjVlqLSQKAkJk3m/Tkj8hASQFqcMk210WgIAAJaLpAyVt6gTmSaJmW63u6bVWZS9k5YcfQ0AAEtIUobK2zuRaX1RiZlOlr03KeAL87RX+PlbEjIAALCcJGWohUUmZsJpSSudzjvd492fWTXDvOxLyDj6GgAAlpSkDLUxScyEYHYRr7ey0nk2rJoJp0BpfWZJQgYAAAgkZaiVkJgJweyiEjNh1Uw4lvvhU6c+tHKGWZCQAQAAJhyJTS2Fmi+dLPtjSJos+rXHp0HF8Rt5Ufx5FFhfmdf9jX64Ma+/v7L92vAjsSVkAACA/SRlqG8A3+2upVGy0e60HivrGkKNmzgevjccDv86yPPLUZZdOUgiJSQhxv+RZN/M0vjRfFA8srJy7Fz4pa2t/vO9m73nlqpPG5yUkZABAADulGkC6ipsZep2u6H4b2mJmb3XDf+cjzqd8a+tPPzw+MetrVuX7vZnJkmXu2np1kaSkAEAAO5GUoZaq0Ji5l7ul3xheUjIAAAA96LQL7U3OZXpXitToCxhe1s/z/9ZQgYAALgbSRkaISRmejc/WR8X4YUKCAmZkCxctmLNAADA9CRlaJRrN248GQrkagnKFJKDewmZG1oDAAC4F0kZGiecWLSzs/NUqOWhNVi0kBQMyUEJGQAA4EEkZWika9evvxKKq0rMsChhrIVk4LIdYw4AAByepAyNFYqr9vP8K6G2h9ZgniYnLIVkoNYAAACmJSlDo4UtJB/3rp9VZ4Z5CfVjQvLPCUsAAMBBScqwFNSZYR7UjwEAAI5CUoalsVdn5p9tZ+KoQnJva3PzG+rHAAAARyEpw1Lp9XpXbGfiKD7drrS5uaE1AACAo5CUYSmFFQ5hpYPtTExrcrqS7UoAAMCsSMqwtMJKh7DiwaoZHmRr69alsPXN6UoAAMAsScqw1MKKB6tmuJfJ6pjezU/Ww9Y3LQIAAMySpAxEu6tmPrp27RGrZpiY1I6xOgYAAJgXSRnYZ7xqpt//YtiuojWW0+RkJbVjAACAeZOUgTuEbSphu0rYtmJL0/IYJ2O2+s+HFVNOVgIAABZBUgbuIWxbmWxpkpxptk+Pub7Ze05rAAAAiyIpAw8QAnWnNDVTSMaE7Wq2KgEAAGWQlIEpfHpK0yiAD4G8Fqm3UDNoX92YK1oEAAAog6QMHEAI4EMgLzlTT5NkzPiIa3VjAACAkknKwCFIztTLeJuSZAwAAFAxkjJwBPuSMydmXRA4y5L3l65Bs2xmdV1CX9xWM0YyBgAAqJhYE8BsnTpx4rvDIvq3dqf12FH+npBMWMZ6Jw+fOvVhkqanD/vnQzImz/NfDKLoouK9AABAlUnKwJx0u92zWRw/k6bp+kGTDGHVzbIezxySWq1W6+WD/rnxNrI4fiMcZW70AQAAdSApA3PW7XbXsiR5PM8HP1hZOXbuQb8/JBfCdptlbrNTa2uvttrt8w/6fdv9nXejqLg4iKLXnaIEAADUjaQMLFC32z2TRtETUZRcuHN7U0gwxEn0Sys9doUVM3dLZIXtSf3t/LdREv2+1+td1lIAAADAoYSVNFrhgW10JvyjJQAAAAAAAAAAAAAAAAAAAAAAAAAAAAAAAAAAAAAAAAAAAAAAAAAAAAAAAAAAAAAAAAAAAAAAAAAAAAAAAAAAAAAAAAAAAAAAAAAAAAAAAAAAAAAAAAAAAAAAAAAAAAAAAAAAAAAAAAAAAAAAAAAAAAAAAAAAAAAAAAAAAAAAAAAAAAAAAAAAAAAAAAAAAAAAAAAAAAAAAAAAAAAAAAAAAAAAAAAAAAAAAAAAAAAAAAAAAAAAAAAAAAAAAAAAAAAAAAAAAAAAAAAAAAAAAAAAAAAAAAAAAAAAAAAAAAAAAAAAAAAAAAAAAAAAAAAAAAAAAAAAAAAAAAAAAAAAAAAAAAAAAAAAAAAAAAAAAAAAAAAAAAAAAAAAAAAAAAAAAAAAAAAAAAAAAAAAAAAAAAAAAAAAAAAAAAAAAAAAAAAAAAAAAAAAAAAAAAAAAAAAAAAAAAAAAAAAAAAAAAAAAAAAAAAAAAAAAAAAAAAAAAAAAAAAAAAAAAAAAAAAAAAAAACooP8JQBi+O3fx73kAAAAASUVORK5CYII=;" parent="1" vertex="1">
          <mxGeometry x="801" y="678.3100000000001" width="144" height="53.38" as="geometry" />
        </mxCell>
        <mxCell id="ISLTeA0epEblzr7iQHqH-1" value="" style="endArrow=classic;html=1;rounded=0;fillColor=#0050ef;strokeColor=#001DBC;entryX=0;entryY=0.5;entryDx=0;entryDy=0;" edge="1" parent="1" target="geUrxulTSK8gtvk_V5yR-235">
          <mxGeometry width="50" height="50" relative="1" as="geometry">
            <mxPoint x="507" y="357" as="sourcePoint" />
            <mxPoint x="639" y="235" as="targetPoint" />
          </mxGeometry>
        </mxCell>
        <mxCell id="ISLTeA0epEblzr7iQHqH-2" value="" style="endArrow=classic;html=1;rounded=0;fillColor=#0050ef;strokeColor=#001DBC;entryX=1;entryY=0.5;entryDx=0;entryDy=0;" edge="1" parent="1" target="geUrxulTSK8gtvk_V5yR-220">
          <mxGeometry width="50" height="50" relative="1" as="geometry">
            <mxPoint x="615" y="297" as="sourcePoint" />
            <mxPoint x="693" y="267" as="targetPoint" />
          </mxGeometry>
        </mxCell>
        <mxCell id="ISLTeA0epEblzr7iQHqH-3" value="" style="endArrow=classic;html=1;rounded=0;fillColor=#0050ef;strokeColor=#001DBC;" edge="1" parent="1" target="geUrxulTSK8gtvk_V5yR-221">
          <mxGeometry width="50" height="50" relative="1" as="geometry">
            <mxPoint x="558" y="468" as="sourcePoint" />
            <mxPoint x="636" y="438" as="targetPoint" />
          </mxGeometry>
        </mxCell>
        <mxCell id="ISLTeA0epEblzr7iQHqH-4" value="" style="shape=image;verticalLabelPosition=bottom;labelBackgroundColor=default;verticalAlign=top;aspect=fixed;imageAspect=0;image=data:image/png,iVBORw0KGgoAAAANSUhEUgAAC7gAAAfQCAMAAABlzOIIAAAABGdBTUEAALGPC/xhBQAAAAFzUkdCAK7OHOkAAAFuUExURUdwTP9lAP9mAP9lAP9qALe3t7i4uP9lALW1tbe3t/9lAP9lAP9jAOZcIv9mAP9mAP9lAP9jAP9lAP9lAP9lAP9lAP9mALe3t/9mAP9mAP9lAP9mAP9lAP9mAP9oAP9mAP9lAP9lAP9lAP9lALm5ubi4uLe3t/9qALi4uLi4uLi4uLi4uP9lALi4uP9mALi4uP9lAP9lALW1tbi4uP9kAP9mAP9lALi4uP9lAP9nAP9mAP9mALi4uP9mAP9lALi4uLi4uP9lAP9lALi4uLi4uP9mALi4uLi4uP9mAP9lAP9mAP9lALe3t7i4uLi4uLe3t/9mALi4uP9lAP9mAP9lAP9mALi4uP9kAP9mAP9lAP9mALe3t/9mAP9mALi4uP9nALi4uLi4uLi4uP9mAP9mAP9lAP9lALi4uLi4uLi4uP9mALi4uLi4uLe3t/9mAP9mAP9lALi4uP9mALe3t/9lALOzs729vbm5uf9mALi4uAj9Y3MAAAB4dFJOUwDYX+4YnVqIH0uUdBYBq1VOJKi1xmq73ZHC3Tkz+QRanCr1mQTG/ghz+COq/NhwzHgOCOMK/mbp6xJXzu6w4ZeJgPF5OtPzkEouReRsVbAZ51D9Yx7WRhvbn3wsjUEzIWWi/W2kPoS3v0C4gdAUO7/KXyanUg0LEDl4bXoAACAASURBVHja7MEBAQAAAICQ/q/uCAoAAAAAAAAAAAAAAAAAAAAAAAAAAAAAAAAAAAAAAAAAAAAAAAAAAAAAAAAAAAAAAAAAAAAAAAAAAAAAAAAAAAAAAAAAAAAAAAAAAAAAAAAAAAAAAAAAAAAAAAAAAAAAAAAAAAAAAAAAAAAAAAAAAAAAAAAAAAAAAAAAAAAAAAAAAAAAAAAAAAAAAAAAAAAAAAAAAAAAAAAAAAAAAAAAAAAAAAAAAAAAAAAAAAAAAAAAAAAAAAAAAAAAAAAAAAAAAAAAAAAAAAAAAAAAAAAAAAAAAAAAAAAAAAAAAAAAAAAAAAAAAAAAAAAAAAAAAAAAAAAAAAAAAAAAAAAAAAAAAAAAAAAAAAAAAAAAAAAAAAAAAAAAAAAAAAAAAAAAAAAAAAAAAAAAAAAAAAAAAAAAAAAAAAAAAAAAAAAAAAAAAAAAAAAAAAAAAAAAAAAAAAAAAAAAAAAAAAAAAAAAAAAAAAAAAAAAAAAAAAAAAAAAAAAAAAAAAAAAAAAAAAAAAAAAAAAAAAAAAAAAAAAAAAAAAAAAAAAAAAAAAAAAAAAAAAAAAAAAAAAAAAAAAAAAAAAAAAAAAAAAAAAAAAAAAAAAAAAAAAAAAAAAAAAAAAAAAAAAAAAAAAAAAAAAAAAAAAAAAAAAAAAAAAAAAAAAAAAAAAAAAAAAAAAAAAAAAAAAAACA2YMDAQAAAAAg/9dGUFVVVVVVVVVVVVVVVVVVVVVVVVVVVVVVVVVVVVVVVVVVVVVVVVVVVVVVVVVVVVVVVVVVVVVVVVVVVVVVVVVVVVVVVVVVVVVVVVVVVVVVVVVVVVVVVVVVVVVVVVVVVVVVVVVVVVVVVVVVVVVVVVVVVVVVVVVVVVVVVVVVVVVVVVVVVVVVVVVVVVVVVVVVVVVVVVVVVVVVVVVVVVVVVVVVVVVVVVVVVVVVVVVVVVVVVVVVVVVVVVVVVVVVVVVVVVVVVVVVVVVVVVVVVVVVVVVVVVVVVVVVVVVVVVVVVVVVVVVVVVVVVVVVVVVVVVVVVVVVVVVVVVVVVVVVVVVVVVVVVVVVVVVVVVVVVVVVVVVVVVVVVVVVVVVVVVVVVVVVVVVVVVVVVVVVVVVVVVVVVVVVVVVVVVVVVVVVVVVVVVVVVVVVVVVVVVVVVVVVVVVVVVVVVVVVVVVVVVVVVVVVVVVVVVVVVVVVVVVVVVVVVVVVVVVVVVVVVVVVVVVVVVVVVVVVVVVVVVVVVVVVVVVVVVVVVVVVVVVVVVVVVVVVVVVVVVVVVVVVVVVVVVVVVVVVVVVVVVVVVVVVVVVVVVVVVVVVVVVVVVVVVVVVVVVVVVVVVVVVVVVVVVVVVVVVVVVVVVVVVVVVVVVVVVVVVVVVVVVVVVVVVVVVVVVVVVVVVVVVVVVhDw4EAAAAAID8XxtBVVVVVVVVVVVVVVVVVVVVVVVVVVVVVVVVVVVVVVVVVVVVVVVVVVVVVVVVVVVVVVVVVVVVVVVVVVVVVVVVVVVVVVVVVVVVVVVVVVVVVVVVVVVVVVVVVVVVVVVVVVVVVVVVVVVVVVVVVVVVVVVVVVVVVVVVVVVVVVVVVVVVVVVVVVVVVVVVVVVVVVVVVVVVVVVVVVVVVVVVVVVVVVVVVVVVVVVVVVVVVVVVVVVVVVVVVVVVVVVVVVVVVVVVVVVVVVVVVVVVVVVVVVVVVVVVVVVVVVVVVVVVVVVVVVVVVVVVVVVVVVVVVVVVVVVVVVVVVVVVVVVVVVVVVVVVVVVVVVVVVVVVVVVVVVVVVVVVVVVVVVVVVVVVVVVVVVVVVVVVVVVVVVVVVVVVVVVVVVVVVVVVVVVVVVVVVVVVVVVVVVVVVVVVVVVVVVVVVVVVVVVVVVVVVVVVVVVVVVVVVVVVVVVVVVVVVVVVVVVVVVVVVVVVVVVVVVVVVVVVVVVVVVVVVVVVVVVVVVVVVVVVVVVVVVVVVVVVVVVVVVVVVVVVVVVVVVVVVVVVVVVVVVVVVVVVVVVVVVVVVVVVVVVVVVVVVVVVVVVVVVVVVVVVVVVVVVVVVVVVVVVVVVVVVVVVVVVVVVVVVVVVVVVVVVVVVVVVVVVVVVVVVVVVVVVVVVVVVVVVVYU9OBAAAAAAAPJ/bQRVVVVVVVVVVVVVVVVVVVVVVVVVVVVVVVVVVVVVVVVVVVVVVVVVVVVVVVVVVVVVVVVVVVVVVVVVVVVVVVVVVVVVVVVVVVVVVVVVVVVVVVVVVVVVVVVVVVVVVVVVVVVVVVVVVVVVVVVVVVVVVVVVVVVVVVVVVVVVVVVVVVVVVVVVVVVVVVVVVVVVVVVVVVVVVVVVVVVVVVVVVVVVVVVVVVVVVVVVVVVVVVVVVVVVVVVVVVVVVVVVVVVVVVVVVVVVVVVVVVVVVVVVVVVVVVVVVVVVVVVVVVVVVVVVVVVVVVVVVVVVVVVVVVVVVVVVVVVVVVVVVVVVVVVVVVVVVVVVVVVVVVVVVVVVVVVVVVVVVVVVVVVVVVVVVVVVVVVVVVVVVVVVVVVVVVVVVVVVVVVVVVVVVVVVVVVVVVVVVVVVVVVVVVVVVVVVVVVVVVVVVVVVVVVVVVVVVVVVVVVVVVVVVVVVVVVVVVVVVVVVVVVVVVVVVVVVVVVVVVVVVVVVVVVVVVVVVVVVVVVVVVVVVVVVVVVVVVVVVVVVVVVVVVVVVVVVVVVVVVVVVVVVVVVVVVVVVVVVVVVVVVVVVVVVVVVVVVVVVVVVVVVVVVVVVVVVVVVVVVVVVVVVVVVVVVVVVVVVVVVVVVVVVVVVVVVVVVVVVVVVVVVVVVVVVVVVVVVVVVVVFfbu/amKMg7gcF5AhNATk5AgjiAqIOAoCMgloAyUOEhDoEmAopOg0UVD2P8+sJrpZsC+yzm72/Pwgz++s7vnZT8uXxYAAAAAAAAAAAAAAAAAAAAAAAAAAAAAAAAAAAAAAAAAAAAAAAAAAAAAAAAAAAAAAAAAAAAAAAAAAAAAAAAAAAAAAAAAAAAAAAAAAAAAAAAAAAAAAAAAAAAAAAAAAAAAAAAAAAAAAAAAAAAAAAAAAAAAAAAAAAAAAAAAAAAAAAAAAAAAAAAAAAAAAAAAAAAAAAAAAAAAAAAAAAAAAAAAAAAAAAAAAAAAAAAAAAAAAAAAAAAAAAAAAAAAAAAAAAAAAAAAAAAAAAAAAAAAAAAAAAAAAAAAAAAAAAAAAAAAAAAAAAAAAAAAAAAAAAAAAAAAAAAAAAAAAAAAAAAAAAAAAAAAAAAAAAAAAAAAAAAAAAAAAAAAAAAAAAAAAAAAAAAAAAAAAAAAAAAAAAAAAAAAAAAAAAAAAAAAAAAAAAAAAAAAAAAAAAAAAAAAAAAAAAAAAAAAAAAAAAAAAAAAAACA1NuqWlpZLO56smf339MbS1XbzgsAAKTA5kpl+9TT9e6B6D1GutefTrUXV946VwAAUHq1nV+9un5jJDqQtd2v3vWKmbtbThwAAJRKVeXYlckojrXuN+0rbc4gHFLfcv/jUwfwXc3Z10mvfa1pfuIga5+amG+65lIBQGoszVzv3XuEHmDkxecrtc4kHLja53/s2jm4ueoLya1dWxhtPcTaraOFPG7uD08cicHGxi+Gf6qvH62rnng2tHz/5EUf9rIa2veS3cvT4T7b93Av5O0K9x9mf762I8i8t4tTDVEyBp4Wjc3AQVzsGdw5pNsvWxJavLBw2LV3jhXydw1O7pTIZ8deXq755f5NH/uyOL7vBcrVh7tm38NtytsV7jnMbmz5P+6B07Gzbu1B9o9+PPbRV6XyeLYqZzuiJHXMFm+5UcA+WobjBGBzTRJr3zkTqz7r+oR7oMGPn0+c/chPJoW7cBfuGQn3aCb7R9+Qp3C/VZydjJI3WbHhzgT/5V5rzPR7Hj5uvvoo5trDXwv3RJ6/n//k+H3jM8JduAv3DIT7lcwf/EqUm3Cv7RwfiI5K76tNdwt4n0Jz7OqrDy2+h1/GXnsuZ9OhZQr33354Mnxp3rCtcBfuwj3l4Z79WZnxvIR7W+WV6Eh1vLnrfgH/qqk5oPguh63dNxywduMd4Z6kubpzq7aDcBfuwj294Z79WZmGfIT79kxvdPRu/GxiBv7p5qe3Q2rvXNDidUGlOSrck7bw7bS3bQp34S7c0xruWZ+VCZiUSVG4d45NRqXxfaW3u8PfVYeVXmvIQ9pCYGYOCffE3W49U9Duwl24C/dUhvvVqmwf+3gOwr1qqiMqne6ip+7wF6tdgaF3Kf7atQuBazfm6ZcqUxLue058s+xbpXAX7sI9feGe8VmZ2obMh3tnRSmz/d3AzKL7BvxJdWjkNZ+MvXYhuDDz9Mg9ReG+69HjhzaHcBfuwj1t4Z7tWZmQSZlUhPv2eKmzfc+LTncO+MO1E8GJF/9t7qPBa78U7kema3TZ/hDuwl24pyvcsz0rM57tcG97MhCVRceUv6cKv5sOD7zzsf/T0Bq8dnOO/gxT2sJ97135/abdhbtwF+5pCvdMz8oETcqUP9w3uqOy6S26ecA7Ewm8Azxu3P2QQFpOC/ejfUVkT59NItyFu3BPT7hneVYmaFKm3OG+OXY1KqfZBx/Ar+zdDUMTVxbG8amWF18GX5YadTVajVGiCCQr6IoSJCaAQmqtuF0sYlwFirgqQpNvv9p2u+2u7Z47uZl7T+7/+QDOOONhflyfuUOiaMAC7pI+esYtHPs5cO9wrk+PMSbAHbgDd1/g3lDclSnrhXu8OtlynIlenh+ERNGgBdrNJjy2hdX+5hPg3vlV9/EsgwLcgTtw9wPuirsy7TVlnMK9vtbyIJd/4AlCyF0LsDuU8NhPLBz7fPfcCm/h3mw+mmVSgDtwB+5+wF1vV6bS0gr3hYmWFylVeISQ4POZBdadSXjs4xaOfRa4p5Lv3zErwB24A3cf4K63K1NWCved7ZYvyc/wJVUC3IE7cJe8gtzHBjPAHbgDdw/grrYr02ZTxhncl4dbHmWNugwB7sAduIv6Mi8YF+AO3IG7e7hr7cq02ZRxBffeasMnuLcyyzxGCHAH7sBdkGvHWXQH7sAduDuHu9auTFkj3HNTLd9SfcBzhAB34A7cJbk7x8QAd+AO3B3DXWlXJi4phPvOWsu/5Dd5kBDgDtyBuyTnHjIywB24A3fHcNfZlWm3KeMC7oXhlpepxTxKCHAH7sBdtP8mdRngDtyBu1u46+zK1Brq4L4y0fI0l4s8SwhwB+7AXVJ0H/ycqQHuwB24u4S7yq5M202Z9OG+UfXV7a3G+i4PEwLcgTtwl+T2l4wNcAfuwN0l3DV2ZdpuyqQO9wdDrRZyJwS4A3flcG/eec3cAHfgDtwdwl1jV6amDe5vGy2vg9wJcAfuwF34Mab3DA5wB+7A3R3cW5fU/aXjUkMX3Hs9dztyJ8AduAN3aa6cYXKAO3AH7s7g3tDXlWm/KZMu3O26fWgikxkeGRnJZEoWe/NrOR4oBLgDd+CO3IE7cAfufsO9lVfXlak1VMF9IW8D7kMj2+X7+1b6d379Rxfry0v3y4uv8u3/+dvsCkmAO3AH7rK2zGFmB7gDd/Vwz2qFe0NbV6b9PWVShftS2++lDl0oLyz/zor4T9wuVlZ72r0qUzxRCHAH7sBdJvdZhge4A3fdcM8emNYKd3X7ylhoyqQI95X2+iz5kc0N4T7rhdXFtn5HuBQRAtyBO3AXfUT1FNMD3IG7ZrjPvWn2qYW7tq5MTRPcC5Pt3Jn1VbMT3eldbKM184BnCgHuwN1vuH926I+zZ3x8/Oro6OjLvr6+/ee/HTj25tG9O52Q+73HjA9wB+5q4f6X41eaiuGubKnVRlMmNbhvtXGymc1CgiPWNxMfsrrCQ4UAd+DuNdwHE/3hY4/fnZp/v+eL6f0DJ05esSP3m2PMD3AH7krhPnv74+H1wl3ZvjI2mjJpwT13IXmBaSHp26K53uGExyzVeaoQ4A7cuw/uv0n2yPzz84PtL8Pf4o1+4A7cVcL986M/HV7xiruurkxNEdx7Eu/OuNHOYeOFhHRfZ1NIAtyBe5fD/ecfk18+PNvm7T/AAAF34K4P7vHDvU31cFe1r4yVpkxKcL+UdLV9o90j51YnEh25xmOFAHfgHgLcf8zjPf/Y28bWMq+ZIOAO3LXB/d2JXw6vGO6q9pWx0pRJB+4byfZvz1h5SXRrKtHRF3iuEOAO3EOB+4dk5/dfT/yC6g1GCLgDd1Vwvzh9utkVcNfUlampgXuyF1Orm0VLx68k6ctUCxEhwB24BwP3j3Y/PHA62fUfYISAO3DXBPfXj641uwPuivaVsdOUSQPuufVELXOLZ1YsJ1h0v0DNnQB34B4U3D/k4OjtRDfgEDME3IG7GriPHf/6N4fXDHdF+8rYacqkAffNJOvdq1a3KYg3Evyas8mThQB34B4Y3KMou+dvCW7A9YMMEXAH7krg/v7efx1e9Yq7nq5MTQvcKwlWu0esn9bWmvlvcRUeLQS4A/fQ4B5F8Z6T5nfgKEME3IG7Crg/vvU/h1cNdzX7ylhqynQe7rsZ85Oa6kRLZcb4U6rDxYgQ4A7cQ4N7FF0cPWd8C+aZIuAO3P2Hezz+iU83eAv3GcmmhFq6MpKmzKVFD+A+ZV6T6dCGLgtV0zMp82whwB24Bwj3KHp6zPQW3M0yRsAduPsO97nBTx3eW7j37gx1T1dG0JSp7va4h/s+43Xu0nLHftkx3NK9kV/h4UKAO3APEe5RfNV0g5nnjBFwB+7/yeyAQR6nc04XX356rP2Fe7QoWaZW8Q9C0pS5HLmH+27JFO4Xtjr39eyCaW3nFTvLEOAO3IOEexTNGb6kupfN3IE7cPc63/3eTHsM996u2VdG0pRZ8ADuxq/Qru128LeduG66o/t9Bp0Ad+AeJtyjG4Z1mZfMEXAH7v7mxvlrTX1w756ujKgp4x7uy3nDLWUWO/w+qKncq3VmnQB34B4m3KPseaObcI4ld+AO3L3NmT/4MrLHcO+aroykKbMdOYd7bsRwgftZ3Okrt2Uo9x6GnQB34B4o3KNo2ugu9DFIwB24+5mn3/s3ujK490pK1gruwIbg7/HAPdxXDd2+nUKlvN9sH80G76cS4A7cg4V7NGq05M5XmIA7cPcx2QPnmlrh3i1dGUlTpugc7juGu7gspvIq6PKk0UmtM/EEuAP3YOEe9Znchr8zScAduPuXuTde/meZDO5d0pURNmVcw71sVnC/kNL3jjaGjE5rHzNPgDtwDxbu8VmD23CPvdyBO3D3Lt9caWqGe3fsKyNsyjiGe78ZkIe30rp8Zg2eVzFTT4A7cA8V7lHWZG+Z94wScAfuvuVIUzXcu6MrM9UQNWUcw73HyMeThRSvn9GZvWXqCXAH7sHCPbpxUn4fjjFKwB24A3ercO+KrkxuQtaUcQv3gtGCe2MpzQtotNtNhq8wEeAO3MOFe3RK/g3Va0eYJeAO3IG7Vbh3w74y0qaMW7g/M2q4z6R6BQtVk3PrZewJcAfu4cJdgK5fMsosAXfgDtytwr0bujKCpsePTRmncC/kjTaUSblIft/kPwOGabkT4A7cA4Z7fEJ8I24yS8AduAN3q3Dvgq6MZE+ZZ5FruBs13EtbaV/DNZPTe8DcE+AO3MOFe3REXpahKwPcgTtwtwt3/V0ZcVPGJdyNFtwbG6lfxC2TPebZWIYAd+AeMtwNdnMfZZiAO3AH7lbhrr8rI27KuIS7UcO97OAqLpgsuS8x+AS4A/eA4T52XXonBhkm4A7cgbtVuKvvykj2lPmpKeMQ7kYL7sNFF9dxm8+nEgLcgbssX0jvxJUxpgm4A3fgbhXu2rsy8qaMQ7ibNNzzK06uY33S4BwrTD4B7sA9YLhf/Ep6K2aZJuAO3IG7VbjvKu/KyJsy7uBeH/K8KPMxJjvLrDH5BLgD94DhHk1Lb8UTpgm4A3fgbhXuyrsyuYm8tCnjDu6bJjvKFB1dydjgM0z5AqNPgDtwDxjuB88Jb8Vdpgm4A3fgbhfuC6q7MpKmzD7HcC+abNnibq/FikERv8boE+AO3AOGe3RU+vFUSu7AHbgDd7tw192VETRlJouO4f5WSQnlsvw0J4vMPgHuwD1guB+W3osXjBNwB+7A3SrcVXdlDPaUcQd3gw7KkMsOSsGgiv+W2SfAHbgHDPesdEfIq4wTcAfuwN0u3DV3ZZYMmjKu4F4xWHCvxS4/bjQlP9FXzD4B7sA9YLhHZ4X34lvGCbgDd+BuF+67Vb1dGZOmjCu4GzRQqnWnV7PfYMl9heEnwB24Bwz3Q7ydCtyBO3B3A3eRLP3syhg1ZRzBvT8v/2rqjOPrabDffA/DT4A7cA8Y7je+lp3Z6SzzBNyBO3C3CvdYb1fGZE8ZV3AvG7zyueP2csYF+e8Y1R+YfgLcgXu4cI9uCm/GU+YJuAN34G4V7oq7MpKmTM4t3HOllpoF9yjalp/sJaafAHfgHjDc+4Q3Y555Au7AHbjbhbvaroxZU8YN3Jf0LLh/yLJ8yZ3XUwlwB+4hw11ach9nnoA7cAfuluGutStjtKeMI7g/k8O97MElXZSf7jLjT4A7cA8X7keEN+Ml8wTcgTtwtwx3rV0Zs6aME7hLLu2/93Cve3BJDf6DYJPxJ8AduIcL9/iO7NSOMk/AHbgDd8twV9qVkTRlfr35iQu4G3w11Yt9WuKM+HwzMfNPgDtwDxbu0QnZqf2TeQLuwB2424a7zq6MZHV4yTHc17XtjD4jP+EK80+AO3APF+7CTzCxkTtwB+7A3TrcdXZleiRNmdgp3PvlL3t68otRXf4RphrzT4A7cA8X7qOyU/uKeQLuwB2424a7yq6MaVPGBdwN1q9XPbms8tdTJ3L8ACDAHbgHC/e/Cr/ARKsQuAN34G4d7hq7MqZNGRdwH5Z/0GjXk8u6T/67xhI/AAhwB+7Bwv3PwrsxxkABd+AO3G3DXWNXRtSUcQv3ZWWvpn6MwRejevgBQIA7cA8W7geFd+MbBgq4A3fgbhvuCrsyxk0ZB3Cf0bh6XZN/MYquDAHuwD1YuGevyc7tHQMF3IE7cLcOd31dGeOmjAO4j4gNXPLHwBX2lSHAHbgD9/8f4UbucwwUcAfuwN063PV1ZXqM355MHe71vKqvpv6cuKTxrAkB7sA95ZyUndspBgq4A3fgbh3u6roykqbMlDH17cJ9Vb52vezRpZV3ZV7xE4AAd+AeLNzfyM7tNQMF3IE7cLcPd21dGfOmTPpwXxMLeNinf9QGXZl+fgQQ4A7cQ4X7Mdm5fcdAAXfgDtztw11bV8a8KZM63Hfl3zKa8ekftUFXZpUfAQS4A/dQ4f4n2bnNM1DAHbgDd/twV9aVyU0aN2VSh/uCfOW64NW/anlXZpEfAQS4A/dQ4X5Ldm4vGCjgDtyBewfgrqsrk6Apkzrce7R2xTfkn40q8jOAAHfgHijcjwpfTuXTqcAduAP3DsBdV1cmQVMmbbjHE2L//ou9+3Fr4kjjAB6Tu8aSH4UEKIYkQEBjNVKCSZqIQZIzEBLbCwhCEEH5paIFRWu5//56Xp/nnrNC3pmdmX139/v+AewM+2M+O/nuzBtez/WpRXLLsXkqCnAH3L0K9wMsBwm4A+6Au31wd1RWRiYpYxruAtum7jC7rH8ht3wJzwAU4A64exTuXWzABLgD7oC7jXB3UlaG0L9/vY7YC/eb9N2XuP2Q+typIR8UCnAH3I0VMSqzhhsKcAfcAXcdcHdSVuaFRFLGNNzp09YPuF3WV8k7R934FQ8BFOAOuHsT7lFa28K4oQB3wB1w1wF3B2Vlpu7fkNCwWbgLRNz5BcXfktu+gocACnAH3L0Jd+JykHncUIA74A64a4G7c7IypKSMzXDfcfLSLAvkxi/gIYAC3AF3b8KduAFTFjcU4A64A+5a4O6crMyLPYmkjGG40yPuL/ld1/QFIa/jIYAC3AF3b8L9GqlpOawGCbgD7oC7Hrj7PjgkKyO1poxpuNMj7jf5Xdez1E1f9258wlMABbgD7p6Ee4PUtDLuJ8AdcAfcNcHdKVkZuaSMWbhTXi7+rKcML+xX5Na/xlMABbgD7p6Ee4fUtHXcT4A74A64a4K7U7IyMrsvmYY7PeL+E8ffUd/QN4/CUwAFuAPuXoR7JEVq2inuJ8AdcAfcNcHdIVkZyaSMWbjTI+63OV7YT8jNf4WnAApwB9y9CPc8rWlR3E+AO+AOuOuCuzOyMpJJGbNwv02W73OOF/Yn8krui1N4DKAAd8Ddg3AfoDWtD/cTD7invQX3NC4qb8B91hFZmRdySRmzcL+7R5XvLZZX9nXyi8cOHgMowB1w9yDcW7SmhWz9/6XXRvsfb43ETuc2E+1AoHh+vhoIzCfW594NV8eDIX/rrOBmuBeS90Ij0cE/up75/EcCnfXB426t1H9mr2s1wb0wOhYaqQ4mOoHPMa5ioL0+GB+vlZoDYLxr4e6IrIxsUsYo3H8lu/cuzyt7wdm/GKBQgDvgrrlKtKbds+s/d/g4WF0n5PAD72K1saTNq82rh3u+ORO7krvwz6XWozOtinvgXumvRTeLF3e3EQsdYiswV8J9xQFZGdmkjFG4f+vsiDvtSrjkJQmFAtwBd5fDfZvWtBPzLQv3144DgtdMaq67n7RvXlYt3LPPjgZzhE4XGyP9tmhWLdwLzeA7SndX54Ktgs/z5Ta4OyErI5uUMQp3+qosN3le2f/EFkwowB1wB9wvqSqtaX8z2qj0aCg6L33h1Ie3kvasc6YQ7oV70YzIG8txKexkuFf88ZRId6v+is/b5Ta4OyArM0tIyiz57Ib7S7J7HzLdVe8utQM/4OtUFOAOuHsQ7us0Cxts0VkonrF88ZQPxmyYhFYF96yY2v/c3Db+0fBvDargnhVT+39/ZkhVm56OvLsO7vyzMiuySRmTcI/8RGXvHtedR+mvHk99KBTgDrh7De6FHKll7ww1J3KyvXmuqFLVMdOJCjVw36h1JLvcCW44D+67wYBkd9tb9ky7CEGxzQAAIABJREFU56O96rGVPx8cptRgz39PYthaPTMLd/5ZGemkjEm43yKr9y3X4ZIe9nkP5qEAd8Ddc3A/pLXswEhjJo4S50qrPpl0HNxHYykrbyvdCWfB/Vl11UJ3M30DNtzOYb2rpw6f8yi5D9Kl4c4+KyOflDEJ92+c/2kn/evUJTAPBbgD7p6D+zStZTP6W5L1D+rQx5zf4Eoz1uGejFvt8GrMGN2tw/3k1Gp3c91dwN0dcOeelVmRj40bhPsSeRX390wj7r6r2DsVBbgD7oD7hXVAa1lLdzs2pPMSPcPQ7ZCxxIxVuE9Eiwp6nDtYcwbck8dKIlGTpj/LBdy1wJ17VoaQlLkbsX3G/ZULti8ix/QXIz4UCnAH3L0F90ib1jLNWeLlg5ROgZSnDc26W4N7pa+oqMOZmpF3FWtwDx+o6m49ZHb9fsBdC9yZZ2UsJGVMwp28JMveLNvxkv516lUfCgW4A+7egvsyrWHzWhsxEV3VbZD2mJGpGUtwH+so7PB8kzncIyWVP7FcOQTcnQ933lkZUlLGdrjT9029w3e8XCJ34gmchwLcAXePwT1Ea1hUYxN2Y6smFHJtmTfcB1RzLRZmcPVcCPdlxR80FCcNLjADuOuBO++sjIWkjEG4v3b6vqn/qefkTjyC81CAO+DuMbgTjbCvrQGFWsoQQ3JB/XkKebh/VB/xL/fzhbs/o7y78+Ym3QF3PXBnnZWhvFVcuMiJObg/Ipv3Dd/xkv728cCHQgHugLun4F4hqlnXoooRf9kgRBra14aUhXthXMtnuX2aX1Vk4V6JankzOzK1IRPgrgnunLMyVpIyBuH+gLyozArf8ZKe98GyMijAHXD3GNxLxI//NInozDBRUkM84T7R0NThOb3Ly0jCPZnQ1N1TQ8vLAO6a4M45K/PBQlLGINzpi8rcYjxgkpeVuQvnoQB3wN1bcCcGjat6pttDKeMWieldbUUO7q26tv6Wta7jKQf3jxlt3W2PGrltAHdNcGeclZld3JNPyhiEO5m8P0wxHjCvk18/fgP0UIA74O4luK8R1+MrafmfxO3ASEPrHLQU3P06319yJY3dlYL7tMZvkYupeybuG8BdF9z5ZmUsJWXMwZ0eMnnLecD8O7kbOz4UCnAH3D0E9yDxTOjYm7IZsEcj8zpXl5GAe6RW1Nvhmr6FMCXgnh7R29vVacDdwXDnm5X5sGchKWMO7q5YVMbnu0nuxjeAHgpwB9w9BPcC0c4N9YeObK3axZG6xjiFONwjfdo73KdN7uJwT8e0d/cIcHcu3ClrLtqSlbG0poxBuNMXUlzgPGCukLvxxodCAe6Au3fgvk+ds1V+5GzURo9olLs43EcMdHhcl9yF4R45MNDdIODuXLhzzcpYS8qYg/sCWbzPOQ+YO+RufAD0UIA74O4duKepi3soD5dUBm0FSV3bspDCcN820uGuJrmLwj3SNdLdbcDdsXCfvc8zK2NpTRmDcP9AFu9rzgPm79Re7F33oVCAOyO4HwDuWmuIeB42VR94bd1mkZQHmMD9yFCHNU1CC8I9MmmouzOAu1PhzjQrQ0nKLPgYwJ2+HMtV1iPmfWo3sB4kCnD/Sz2WPLaKDWWGAXedlS8Tz8OWarcnbCfJZoUF3EvGOhziAPcZU70t+gF3p8KdZ1bGYlLGHNzpq0FGWI+YP5Kn3Kd8KBTgrmaq7pqCYzfccyo4wp0627uqeAFFBm4/Pz/Vs6WUGNyfmVvHXg9lxeD+0dz3yLl+wN2hcOeZlbGYlDEG99kbVPDe4T1i3nbJLwcolB1wl916p6zg2PW0a04FQ7ifUdV4rBg9myxQoic8IgT3gbLB/uaadsN9OWOwu5kTwN2ZcGeZlbGalDEG96dk7/7Ce8Skf2T7ENJDAe5fVFvuB7U1JQPHIeCurdLk70PVTl7m53igpKgDskJwz5tN+mc0fJErAvfwvNHuBgY03jyAu0a4c8zKWE3KGIP7t2TvPuA9Yj7CQu4owF2+5Gau1KRZj1xzKvjBPUQ9CZtKs5DpYyYoOe/oiLmLwH3ccIcTFRsuov/BvWq4u3MFwN2RcOeYlbGalDEGd7p3/8F7xKQv5H7Th0IB7l/UiNShG2o+IXRNVoYd3JfJ8ep9pcftO2dTMXvh3m+8w3Hln6MJwN1vvLtdwN2RcGeYlflkNSljDO70hMl73iPmQ3JHliA9FOD+l6B5WOLITUUjx5hbTgU3uOfJQfOy0olLa3zLzQ9Wx4OhUmnsuz9qrDRUGzk43pT+wvOjnXCvdOjd3ox3j2b2S6WhmaPucSInnQ5SvTyQANzX6uRmptar45+7uz8T7A4n5L9oLQHujoQ7v6wMpUU7LOBO/6bzCe8R86pbwvoolB1wlxmC0lcUjRwNt0y5M4N7hL5xaUjlNG1SFtmpufGh1ln261fbbnOr2pH4o/NZG+FOPAPtbmn5i2ZmR6ejdbkXn5ZdcI+cEuM84/6JL+757EkoLvdZa0rbPluAu06488vKEJIy30+xgPv1Pap3n/IeMenL4/wI6aEAdxXDn7r1mrdcciqYwZ1+gpROuBekrsh6dTrZ+wVuIjQsPBVdsw/upKDMZu2iPWuzra4MZssbNsH9Mek1fWbiou42YzKvfPOaVusH3LXCnV1WxnpSxhjcvydPVH9iPmSSF6THDkwowF3FR23NnLKhIzcKuKuve0XyCZhWeVyJjTMDfSfkX13C04KfVmQ2VP9nqXBP915RJhc7ufTHjvy+xDItVbXdpcK90O49P9C9fIKgMiPxo8o44O5EuHPLyvxsOSljDO6LVO7e5z5kvnXJTlIolD1wPx8WixQs1xWOHfMDrjgVrOB+SJ+9vKIyTSL+5cPwd4LHb4pt/DVpF9yHerJ9crfnwdKljiGLWYV7rSfbR3q/Q2WnA8Kp/paeOwhw1wp3blkZSlImwgLuv5En3O9wHzJfkrvyO6iHAty/UtdE5txbAaWDR/sMcFdbSYET1K/wuAXRGeJjmaVIW5sCR0gp3hSWCvd8uVfXJ2j/0m3RH7fKYZXdJcJ9o1esJ7pLOlxlsijY3YSeNSE1w30rSql475MdtVZySwFbhzuzrIyCpIwpuN8ia/cV9yHzBbkrt0A9FOD+tYmrxgT1mJHpnOJpn3K/C04FI7iLuF3ppqnbYuf9nWRKKlsTuAJVT7kT4R7skQ/ykw84KrqLk9JFMIlw77FifYe+vE9L9OWvT8s9FLbpuP9XA70nXGx51imAO6+sjIKkjCm4v3bPWixL2DoVBbhb/UL1iJZZONGxL+ZBxfGngg/cRdye2VV44GWhN7r6vnxy8bBNv67Dav+7NLjnLw+TxUWi91nRSXeV78E0uG9cHs2KidzeecFJ99UTHTcR4K4X7lP3OU203raelDEF95/J2mW+carP94bclRVQDwW4XzDpXj7qGSvI/pu9c3GL4siiODsYWdEB4wAaYHgMMaOfiLDOKANBBT9WHuoShPAILIo8XDUqvnby36+b7G6yu5E51X3vreruc/4Abt3uquHXVefe6u+q1jVUGhpM+KsIBtwXXAoQRCtTna5M7YpVNnoGd7oLty3CwH3k2Mn+yPWVunnTFgXdIxi4Hxx7uuDaTb/drZ3OqkZHWYK7LrgH5ZWRcMpYgfslmHZfhP4vE78D9jFRjyK4f75ebrI11/5Z5ba6Zup6Wt/rbLfQ2e0vNf7ThwLuOZeueh2ST2LB5W1fiBm5DPepX5R92xC493UfV4097xz0rdtCF/xWgcC9ctyHxap78XnvolO6GtcwEdyVwf1UQF4ZCaeMFbjjF6deagpcJ+FU7hL1KIJ75lXqGjkj/SrCAPe+A5cTkRlJo0zewUNVjM9a+Q00WLs9uLcfx1pRpl7NqQ3JjNzshsD9uA46hbEoi6nDJd0lhfpUgrsyuIfklUGcMg3/iBG44xWdR6HTy/dwKveIehTBnfqEjgPC7UaCAPczbm3m+iVjzzmc7LwXiJffA6MV7MH9GCPPULT2m31tLi9WDiohcP98+Wy1JVohQ9lpIk8rrCSCuy64B+SVEXHKWIE73kPxVOj08lc4lXdEPYrgTv287T4ieq1DCOC+72YxGBANjqPWck4kYB/oqZctT0XAfeXzxx4HkbOdcvksFeuwioB77+e5/WnUuJXXLkv5BME9ceAejldGxCljBe4X09OKBe9seUjUowju1C+akjxi9w/u5a1lp/TfSF69dAy9/Z86hUKOgY0SRStwEXA/rbE3XHYh9zZLcP9s68tqjDddcbloS/yaLYK7OriHcweTiFPGCtyvwrT7Q+j08iOcyjWiHkVwp/5N0WNyr8I7uL9ynAzjsl6hATjwhljMt1j7EVG6QcD9jYqnw8U+Uu21A/d8twK3fyL3Nw7eK/E73Aju2uCOkK6JVwZxyrwQSUcC3G+m59aij+m5BJaiCO526pLrOOIZ3Nf2HPt0lnpE45fhhkOzguccOQzrJL0yALjvVHW82LVuh9MkO3DvVTpZWVvyuOVOcFcH91C8MjJOGSNwz38D0+6PodMLnstNoh5FcKf+o5Z0gHtls+SY+PBZ2RFMwB8Mog37MftITjBiY3Bv3dM6apjH3/Ky0GNuDO4tU1prax/vbFpcE15RBHd1cA+lr8wVmR1fG3D/AHP7T38KHl8uo6lcJupRBHfqV76RshT4BPfK6Lhz3jnhMRTQyLL3Ia1AKDslGDEXea51xK8pmMCjCRmSTkdOtxD/NOspHm2L4J40cA/EKwM5ZfIi2QiA+x9hbt8NH19w289Hsh5FcKfkQdobuNc2nbG9XpW+s6aCbo52l2UDQ2DZLNg/KDK4L0q0PmnF96BX7J7v72lVon7kHBxupkZwTxq4h+GVeSBU52kD7ngLxW/Dx5frcDJ/IetRBHfqV20nG9zftpbcc652Sk/EOTR0u3DgMtQBs1cuYFRwL4mMoYLb3C94BffmLyWin8G/SWVPcgjuBuAehlfmoVBtpA24/w1m3evh40uKOuRQFMHdUucSDO59758vR0i5mBOfiOhO8KR45E4k7Gn/4P5UJvwCXINcEtmDjgruQh9ouDdoXPYoh+CuD+5BeGWEespYgfsDmHUT0InlZXp60lMUwd1SJaF/+PbgPtiyFC3jOfmJuA7GnhCPXEY2ZQUvT40I7s+l3DpDcEiRr5WI4C7W8hNvXi/7NUpwNwD3ELwykFMGWbw24H6Upt7nF3dTcwssRRHcTbWfSHDfGZ2NmO9Sj/w8rIH7wN198rEPkJx9g/u42N2eY/DtuOsS3wrRwL1b7IKEE83m1SoEdytw/zqAO5iknDI24J6/D4P7s/Dx5RBO5mQTRRHcKXEPgyG4971qmY2c7uSKwjw8a/us/0sriFtILulo4P7ex5fDgi9wH96XSxcfQK/krCK4G4B70xPvXpmPl3dlnDJGO+53YdY9DB9fHsLJPCbrUQR3SryIzwrc8/MjU80xsj1X0ZiHB1jwYk0jeIdpTWwkcN8TTDc/iUZt8wXukr0Zy3A5ruglTAR3C3A/5d3ycVKsMtIG3F/ArPsufHx5Bydzn6xHEdwpeTuuPrjnd94fdDXHyrXYqTMPwS7uBZXgI0DkA6/gPnNCMt9teONb4FaiKOC+NCaZbjv8lCXDEtwtwN1/X5mHu1JVnjbgfg9m3S/Cx5cv4GTukvUogjv12z3o8MH9RE//5t5kKXaqf+hVmofgrmhOJfgOYLCXu4IpCriPyCYMF2wKtEiMAu79otnmO9C4kpcTENwtwN27V+YDcHkn5pQxAvfbMOveCx9f8K+QF00URXCnkgDutcH9iZHWwmpJJtFqa0VpGpaHsf3+MZ3wgHdk3Se4zwqX5A6iLSFvxS9PjQDuX+Vl092HyzcI7kkDd99eGTmnjBG4P0kT696Bk7lD1qMI7lRw4F6u1WprOzvzr+Ymbpye3hoovFksyubZvaA2DQexETxXCj8KuEbEuny7g3t1WzpheMv9lQdwH56XThfecn9LcE8YuPvuKyPWU8YK3K+kCdxxw/5tsh5FcKe8gbsvDW9V9KYh2FRmVCn8PBBbjCbdwX1KPOEeNHR8uHQH9yFf06tenya4JwzcPd/B9EGsp4wVuB+myRaOt8h5QtajCO5U1sD9q3nNaXjDav/395WfaRz7rDdwryo8+tdomWhsk44zuBfl243m0eanqwT3pIG7X6+MoFPGCNyfwax7qSl44eB+haxHEdypbIF7d7vuNJyGRlEqa8V/blgf6gzubQoJL6DBY9ujnMF9SCHdfjS43DcSwd0G3P32lRF0yhiB+7U0gfslOJmHZD2K4E5lCdwXn5aVp2ErNI4utfibjYOLtRZ3BfflQY0zhnUw+oA1uBc17vcqj4PR5bp+EtxtwN2rV0awp4wVuL9MU+vzVF0DS1EEd4K7lG51ltWnYRs0kha1+EBnc7F975yf6fU/GgWjN8d9+a7groOzW+jRklhDG4K7Ebj79MpIOmWMwP0qwZ2iCO5UqsH91o2ywTR8Do0lpxa/0rgBT4dULFdw1ykuWBsGw8f1yjiC+/CKSrqD5k+b4G4E7j69MoBT5iX8x0ID98dpAveLZD2K4E5lA9xnH5VNpiFWK9mrN4DG1Ytijdwdwf21UsZoR8i4FiFHcG9TShftCDlKcE8YuHv0yog6ZYzA/XyawP0xwZ0iuFME99+6jfdeWU3DN5DZW7EfZWOMnfEE7u91Es6jLRLjNlpxBPd9pRf8CIwvBrIEdytw/96bV0bUKWME7tdh1j0KH1+O4GSuNVEUwZ1KO7h3j56xm4YdzYAmFQcAeKClzh7cwP1Wn1LG5WZwBDuW4K72jmvgbWTDNYJ7wsD965u+vDKiTpngwP1kU/A6CSfzsomiCO5UqsG91DaXz9Q6ABrJr3kB91G1lDfAEXRagvsjtXQL4AikGp8S3K3A3ZtXBnHK3BVNQwDcb8Ks+4DgTlEEd4J7MsC9ODVRydo6APqav/UB7kW9Y485cAgFQ3Bv1pt46GPfILgnDdx9eWVknTIEd3c9gJO52kRRBHcqpeBenOofy+A6WLErjXUC9za9lFGvTMxrr5zAXZFlUa/MktBRE8HdCtzzvrwysk4ZI3D/Fmbd78L/2f6O4E4R3KmMg/vixkQtm+ug3PjhbPsA97OKOaNemXj1ok7g3qOYLtpGR+i+K4K72Y67J68M5JTJi2YhAO5/hln3VJrA/TxZjyK4U6kD9+GO0d58dhdC0YyhXcB9vE8xZbSvzKYZuK9rTkC0r8wNgnvSwN2PV+ak8D4/wV1jHv1L18l6FMGdShm4z85Vsr0Qlho+ogkP4H5BM+UKaB55bgbum5rprlWxQewR3JMG7n68MsJOmeDAPQFWGYI7RXCnMgzuC+VsL4T1ho+o3wO496rmjN1XW5+Jte3vAO7LK6rpTmKjuEVwTxq4e/HK/F22pww97hEEW2V2aZWhCO5U+qwypULnToYXQmOqy9mD+6puzk8tPh8cwF0ZIqfBYch8PhDcDcHdh1cGufznB5c/yK4yeuDO4lSK4E6ltDh1dWu7L6ML4XXDhyPVYtwB3A90c94BhzFiBO5PddPtAYchc7RCcDcEdx9emUPp5uGhgXsCLmDC20GyjztFcKfSCe6ftLQ1n8mF0Ph+HqGiRRdw134V69gwpmzAvbqmm20f2P9yiOCeNHD34JURd8oEd3PqUZrA/VoTRRHcqZSC+z/33acz6Jlp3CywUygSDu7d2kkPgB9zNuDe4f8d/1LvQXBPHLjbe2WOxPf4QwP3x+H/auM3p14k61EEdyrF4F6vL3e9z1pnyLYAwb1FO+l+cCBxtsJxcD+tne4INo5hkTptgrsluNt7ZcSdMkbgfh5m3ftpAvdnZD2K4E6lGtw/af1GttrM7AUI7j3aSa+BAzlrAu7q5zy9ls+d4G4J7uZeGXmnjBG4X4VZ91L4v9pHaC67BHeK4E6lHtzr9fGWExlaCBvhgfu4/qkHaHKftgD3WfVs8+PYSETeNMHdFNytvTLyThkrcN/NIrj/dEjWowjuVPrBvV4vXTiTmYUwFB64b4TwufKzChbgvqWfbgEbyQDBPXHgbu2VOZT/TrAB95cw694N/1f7MZzMQ7IeRXCnsgDu9frMZlYuVG0ND9z79bO+oV+dCoP7gn66m9hIJgnuiQP3ptume8gKThkjcL8Is+6LNIH7FbIeRXCnsgHu9fpiLhsL4UJw4L5scNyBur5jVKei4F4yqKmYM6xOJbjbgrutV0bBKWME7s9g1r0T/q/2fTiZd2Q9iuBOZQXc6/VCJqzuLcGBe4dB1uUiNpY5fXAvGKRbq2Jj6RWIRXC3BXfEK/ONmFdGwSljBO4PswnuT8h6FMGdyg6418fnMrAQDoID92mLtDuwscS4OxUF906LdMFiXAmTEsHdFtzzll4ZDaeMEbi/g1n3XprAPQHJUBTBneAup+qF9LeGnA4O3Lct0m7FxhLjMlEU3Actbg44h43lgOCeOHA39cpoOGWMwP12mjapL+GG/axdTEIR3Klsg3u9PjuY9oUwGhq4F03KgsHq1Bh4B4J7s8k/VrA6tY3gnjxwt+wro+GUMQL3e2mq57z7D/buxStqc4sCeArX4gUHKCJShOEp4wMoqIwM+IKC4mAVUUTxQSugVAUKta3897fedX2s1bUue5KcnZPMPn8Aw8l8yfpNsnO+LI3IUakEd8E91urLelymwRvcWyltb4JpKXO4X6W0+x77Z5YF9/TBnThXBknKVP5JHLi/zdLoc7yZFGwDq1IJ7oJ7vGmZoWK2T4QRb3Cvo7RdAr//8BNuQLg3UNrdB5925AX39MGdl5UxScqQ4I6nS077v2rfgJvZk/VUgrsqMbi3dgK1WS6XmyeLDdPtG21zC+Ox0H010yfCuje4kx5xTGD/zaY13DspUZk8OEVnX3BPH9x5WRmTpAwJ7vj7nO/8X7VvwdvA3pf1VIK7KjG4hxibV9gvF5+9WYjaZ38+wyeCN7iPlzh972LfffjnLRjc+0hraw5rt1lwTx/caVkZm6QMCe57MNxP+r9q42/aPpL1VIK7Kk1w/1+VyqvHayPJPcNv5p9wBvdvSH2DY2XCz1nB4N5KarcRa3ck+icJ7nS4s7IywH6dYSbGc+B+H7bu5SzBfVbWUwnuqhTC/WPlOldbh0J3+iq7J0LRGdw3SH2vfzD+dzC4t5Panf7A+ncEdzrcWVmZ1zb5cA7cZ2HrDvq/T/ML3MxTWU8luKtSCvf/3nmvaVsK2WpDZk8Eb3AfIfVdtp5xg8G9m9TuJG3GjeBOhzspK2OUlCHB/Sls3YO/3F+1z8O9HA1UKsFdlV64/11rdROhWh2vyeqJ8MAZ3HdIfYOrbsEY7vukdm9j7U4J7imEe+5XSlYGScqEcSIH7ts43M+5v2rfzdCPEJVKcBfcD6nCg8dheu3azOiJ4AzuQ5dYjWNvPSyF3jsXgnst66l8AcuJ1QruKYQ7lJUZjMxRo6QMCe45eBDLwQv3V+3XcOxnQNZTCe6qtMM9CPI1Yb78xZVsngg1vuA+R2v8N+x7D31LHIL7Lq3dDqzd6DN9BHc+3ClZme1Bo8/gwD24DMPd/ySWLbSVK6KeSnBXZQDuf9N9PURgZjebo2Wcwb2F1jg4Z6VsCvd2WrvfY+3eFtzTCHdGVsYqKcOC+zAM95/cX7VPo60Mi3oqwV2VCbgHQam+8s2ZRjN5InT7gjtvt6t27FsP/XIDBHfetrwbWLvRt78S3BOAO2OujFVShgV3GLsHd9xftX/I0C6wKpXgLriDtVlx1L2rV3A3h3szrXFwZ9NV079/itZuHdZu9F8SgnsCcCdkZcySMiy44y90/uj+qv0ObeWuqKcS3FWZgXtw6UnFYZksngiTvuC+5qjxaMpE4D4+Rmv3BNbutOCeRrgT5sqYJWVYcD8Cw/26+6v2cHZaUakEd8G9Ekn2VdjwpOBuDPc+3osEp7DvPPRkcwTuHbzvuRlrt0dwTyPcCVkZs6QMC+43YLifd3/Vvoi2ckPUUwnuqizBPbh9rbKGFy5l70TwBfcpXuMr2Hce+j9C4P6G1y44yD36fyS4JwF3KCsTJQJil5Rhwf3OQXaC4VfQVs4EKpXgrsoS3IOVqco6fiW428KdN1QmyGOTzRct4V7Pa7eErfDo4zgF90Tgbp2VsUvKsOB+H4b7SfdX7UF0KP23gUoluKsyBfdgrLWy91MfCu6mcGf+MsIetyzlDeG+TmwXy4VF34FJcE8E7tZZmS27G9UkuL+A4X7T+0X7QoZG0qtUVQr3rt1X3eVOpMo1da1DgvvXcv++opbrM3ci+IJ7DbFz8DfbvwzhPu/uijeej/o5gnsicDfOymwD93jDTlEkwf0erN2DP51ftLcztAmsSlWVcH98opLdDnPByuii4P6V3CtKy3Rlaf/UY5vFZ28WXMH9FLH9FuwrDzsEFIH7PrHdNqzdY4J7OuFum5UxTMqw4J47C3P3nPMr9zm4k6OBSiW4u6vaYuW3yAqrfYL7l4/vqKTnZylb56WHt3fK75uaisXiyOjHqvtY/S1tUx0zYMtMuB8jHpp6rP1NO7gP5YntNtr+ThHcE4a7bVZm66XdK50kuAcnYe7+6vyqjqd+Loh6KsHdXU2FC133zgnun2t/poKe+46lYHEXepuL0/VXWztq4/iaiXAnToMMgldY++/t4H6NuSj6sXZ3BPd0wt00K4PMlAm93ygL7lswd/ecX+Bn0UauSHoqwd3f66Fh5xOOtQnun+v9eFYGyxQ6u1+1tC7Gu8iIcH/MPFjg1qkP7P58K7NdcOvUZsE9pXC3zMoASZmX98L+6mbB/XcY7m+d6+XfaCPvJD2V4O6troa/QVmYEtw/17MKml7Mu1zPue8m6453LFmsMiLc25iHrIi1P2oH9xZmu6O2v1ME96Thnrtol5UBblZvhT4oLLjjOzAdca6XPbSRu5KeSnD3lpOJsh/QyqLR/7U/AAAgAElEQVTgHupXzHt3a3ll8tnujN0yI8L9CfOwNWHt19nBnfrCxAms3QbBPaVwN8zKQDNlQt9FYsEd34FpK/BdZ9BGrkt6KsHdV81EGyq+syS4f6reCt7WPe5pGed6ixvXjNcZEe7TzGNXxtrvt4M7c4x70E2KggnuScHdLitzB0nKhP6/WXCHAybud2CCnx38GKhUgrurGon4Jl+P4F6Jsj7VkptNmB4+aJkgrDMi3IvMw9eJtb9ht6SamO3OY+22C+5phbtdVgaYKRPhJjUL7vgQxcEB33r5BW1EG6eqBHdftViI6r4uwf1T5SsIy0x7WL+F+XrWEibCnRpD2gdfJLGD+yaz3R2s3R7BPa1wN8vKbB/u9vAzZXhwH8AHuTsff343K3MtVapqg/tq5GOwIbh/uf2KB4e+SXzxlmoa+3gLjQh3qmSPYe2HfWEWgHsvs91e0kktuCcGd6usjG1Shgb3YBiG+yPfejmdlZ2kVKpqg/ta5GMwL7h/rlwFwaHeRFfusfW2IepCI8KdemQvYe2HndkIwJ26J8Ca7QMGwT15uFtlZbZsX+ekwf01DPc7getCt5Ia1P5LKsHdVS1HPwaFLsH9izfwuSyryS3bQnNjF3ulEeFeYh7LPNb+nBnch5jbTQUrtg8YBPfk4W6Ulblnm5Thwf0WDHfn01hugm1cFvRUgrurimNyXqvg/qWm4b6nklq0mz0zCaw0Hty5kg2wdFTYTaEOh/sEtduS7QMGwd0B3G2yMsZJGR7c4XmQL33Pg/wL7eOHQKUS3D3VaAwH4Yng/qXGatG+xxOZKzN2YjmZlcaDO1eyAfbsYsEM7svc9UP6VSq4Jwd3m6yMcVKGB/dH8B33i67x8lT7L6kE93RWTQwHoU5w/6pW4cbX+eu1t34mqZXGg/sc95hiR3TRDO671G4Ltskgwd0B3E2yMtZJGR7cj+LzIP/wjBd4IP0tQU8luLuqSSpVqwHu+C13+h5M5bbx5FYaD+5cyQYTUPthHwMcDvdGarc5bAlFfgwguCcId4uszJ2XtkkZHtxzN2G5v/CMl58z8o6tSlV1cI9j85ZRwf3rgh9AzOSp4mpuTXSl8eDOlWywgH3ZZnCv57aLJYMeR/0YwT1BuFtkZayTMjy442MUD/Y84+VtRqZaqlSCu+AetfAdqYjzxvM1ywmvNB7ce7jXgA6o/T4zuL/itoslgzoE9xTD3SArY56UIcL9+kEmQibwxqka464S3AX3jMM9aEE7p22emut+nPhK48GdfAsa+0XUZQZ38ha8WDJoIerHCO5Jwj3+rIz1TBlmVAbOmPgeK7MFdnF2QNBTCe6Ce8bh/hztvJW0SstTDlYaD+7PuNeAOaj9ITO4N3iE+6Lgnma4x5+VMU/KEO+4z8J33K/kAr+F7r80LOepBHfBPetwz6G3t4fGGGu0s83FSuPBnZwdwb7tJTO4k4cT1QruVQD3WzFnZZCkzM9pgfuFQVjuRwO3NfAS7EHTIFWCu+CeebjjB2Te/n8pPXGy0nhwJ29Jey3hqEyR226fojLZh3vsWRn7pAwR7sEwat6D+37tAo9xvyHnqQR3wT3zcH+ITl20vzfcNPGh6uA+wr0GLCb8cmoNt90hqN1rgnuq4R53VsY+KcOE++/wHfe3fu1yPxOjcVQqwV1wj6fQwYvWIfe1N35WGg/uJ7jXAOynkd04yCZqtzns29ZUmXTDPYg3K0NIyjDhfgaGu+OYCdyE62H0KpXgLrjHUyNg610FU2Ot932oRrg/4F4DsPmItWZwb6Z2C+6cqjnuKYd7vFkZJCmznR64P4LhftGvXdChloN/ynkqwV1wzz7cV9CszHPDf6J01dVK48G9m3sNwMb22+2cWqZ2O4Z929o5NeVwjzcrQ0jKMOG+nYW3U9FpkCfFPJXgLrhXAdwDdP6i4QzuzYUPVQr399xrwJLp25qHw32T2m0J+7anBPd0wz3WrAwjKcOEezAMw/0nt3a5mP60j0oluAvu8dU02Hub1T+Qnx76UK1wb6ZeAvK22ZHD4b5DbRc8zSK/vSG4Jwz32RizMkBSZjBqUoYK9wzsnfoH+tTghpinEtwF92qAeyfY+4zRBh1jBm+ldi3O7bY1Nm70t9f9s35zBHfu25qXsKM3l5E77mukX6SCe8JwjzMrw0jKUOG+B8P9tFe6wLtIfRuoVIK74F4FcM+hOZVeG13NxbdC+paP949O7nz3/zeLaq/ajLvxLWhvGffbWLtXBfeUwz3GrAwlKUOF+zkY7mcvOKXLHbSDp2KeSnAX3KsB7kE/2LzJBJRTi7Gsja7lxummXuyZQL0juHMHm/fa3oI+HO7z1HY3SSe14J4w3HPxZWUoSRkq3OGA+MHBrFO6HAH//5u5QKUS3AX3aoB7M9h8v8FnT3ZFXhZDc/01+/kKPrPHEdy54yB3bNedt3GQ4MJ+IrinHO4xZmVOH/53XlMkGh/cz8NwP+OULu/SnvVRqQR3wT3eKoAj1Ofi/+j18Yho3119Plbphz5xBPci9RIwjx3VDTO4c4fo1GDttgvuaYd7bFkZTlKGCvccHDTxOpRl4Gza365VqQR3wT3mOg4qeSzuD47m9omNyVKYT91wBHfuzqnd2IENy8zD4T5JbRfcWyzynFPBPXG4x5WV4SRluHfcX8BwvzngUi5wA3uKyqgEd8G9SuD+H/bOhSmKJIvCtaCDyjT2CqvoQCuI8rCHQW1eIggCysPXgIiMKCMvEVTUwbH497sTG7ExsSH2ydfN213n/IC6ebOa4quskyfRw1N9H8Hkwu1PVj8ULMueUQTu9aKPgA1sbreDgbuspR8MOt0guFc8uPvyysg4ZWTBveMeTO5vVZILnIvzipRHEdwJ7hkBd3DPYtrnt+yANbe3Np4u2NdtUATuE6KPAJBke4OB+4Zou6ewdp3fJgju0cHdk1cGccr4WNYVBffkDQzueyrJBU2i79b5wYCiCO4Ed/9CAyFHvVZdtOX2kY1hp8KjisC9WfQR0Bw2Pqhe+tWvjDaxdvME98oHdz9emS6ADj04ZYTBvQsGd527O9GzX3cSiiK4E9wzAu7Ads3/2lN81tyyy5Ppb3Q27DQqAvdLoo+AlbAkWx7c60TbBfduOB/nSnCPD+5+vDJX1kWcMsLg/gIG9/X3iT69XwdHP07IowjuBPfMgDu4aTFd81dybcjKI7Pi4RSoXUXg3iD6CBgNS7L1GgD2b2rC2v1McK98cPfilTlxVSRTRhrcDZLcHyoEl18refAURXAnuIfRj6BrxV8oyHWb81LbV5d91N5XBO67oo+Aj2Hfz8pvct4UbfcC1q5zWBLBXQG4+/DKdK3LOGWkwf0ODO53FILLODr4EwlFEdwJ7lkB92QEG9Cqr3q5RvO5L15a9lP8vBi4l/+S0ST6CABPqS0FA/dRyW5zmBmr3f29l+AeH9x9eGWEMmXEwR1esz4cVBioeAUc+00yHkVwJ7hnCNzBXYveMLPXfOr323wVb1IE7kuST4DOhbAk26uLHcG/sgsE92oAdw9eGcQp86kSwf1LN0zuU+q45QY6+GtkPIrgTnDPELgfgBbzgp9ybcYbU594PLpnWgzcb5WtNCT5BFjD5vq57fU3dL2ntEi9jRLcNYC7u1dGKlNGHNyTHRjcx9Vxy1t06F1kPIrgTnDPELijJvcWL9UKH03nfdPnoa1PFIH7QkHwCbCFTbY14G3oek85jbXrvj+Y4K4B3N29MmJOGXFwn4TB/Zw6r8x9dOgvyHgUwZ3gniFwT5awEQ14KTZhOOtDea+9toqBe758b8cEnwA14FuS7fUXy166X/I9pR5r133jBsFdA7g7e2XknDLi4P4KBnd9p4+iKe63FdrzKYrgTnAPp8vYiFZ81GoxNMqcX/baaikVA/e58qVmBZ8A29h8b9te/6Ku9xTwN93rXIjgrgLcXb0yiFPma2WCew4PhNR2eGoPOvBHRDyK4E5wzxS4g0nu0z5qnTeb81XPq7TLcuAOeFPmBJ8ADYE/qxzoek/Zx9o9ILhXB7i7emXknDLi4I77TQ7fKcOWB+jAHxDxKII7wT1T4P4UG9GCB6/5gdGMt9b4brVFDtyBUrcEnwBg6Kf1u8SMrveUeal9GwR3FeDu6JURdMrIg/sU7pVRZhV/A4+bVhmK4E5wzxS4J2PYkF46Fyo8N5nw2i3vnR7IgXubhFEDX5Fsx+bc+iTRl+WvfVGu3RK44XqY4F4l4D7ltKAs6JSRB3cDr8y4KmqBwyAHye0UwV2jfPzT3ya4f1tnsCHVOxfaMJnvJwGsFX1y4A58x1iVu8XL2JwXO20LAB8Y+uTaBdMga90rEdx1gLubV0bQKSMP7gZemZsdmqjlJDrsP0h4FMFdo3xEmjQT3L8t8Egk5+y84SGD6Z7/HKDTS3Lgfl0ijBDWDDbp9gcSATnxp+TaBTN0PhLcqwXcnbwyiFPG20DlV9wNvDLPNFHLa3TUPyQURXBXqDoPk9BIcP+2PmBDGnOtYxIFOdQWotPzcuAOJE82yd1i0Ca2a/9SVv7io3LtrmLtbrpXIrgrAXcXr4ykUybCiruBV+a1Imi5cRsc9Pr7hKII7grlg2MvENy/rU4wo9Exz69ksOBeG4TbkT2L3sC9fLfzcrcYdEPZQ2ZuoezFR+TaPYu1O0Fwrxpwd/HKAE4Zf4GD8uCe3IHB/d4XPdDyEB30FQIeRXBXqbvuuYBrKcH9CIGRI3m3Kv8yyJPZCtLncL8guJffiFuUO5JoGpt3h+2yteU/osj9oMFXRA87ZwjuSsDdwSsj6pSJAe5vca/Mp0SNrqFjniTgUQR3nZpxnoNegvtRAo+r2XarMgJPdX+gABLE6e0N3JvK13oqdYM7i8H/yoDAoJJUu+DfmIc0SIK7GnC398qIOmVigHsH7pXZUcMsX9BMGW0hlhRFcPe2kS83TXA/SuBevl2nIi34VIeKW5mQBPfR8rW2pG4wuIshdTinFtg+0CbVbj50hg7BXR+423tlRJ0yMcA92avAKPcf4Cgc8h1FcFeqomvISD4luB+lNmxMtU5xuafgmW4KZSE5KwnuQL+LUjcY/NrkEo8IHM2al2oXDH5d8lCK4K4F3K29MrJOmSjgfmIdBvfjWpgFPn3pPvmOIrhX6fbUzn8Q3I9erLqLDcrl5Sk3j0703acx2/QG7sDyvliQO7g31QXvgPeUPql2wb2pPuI4Ce5qwN3WKyPrlIkC7jgFH3YriWh5DDtlXpHvKIK7VvXXOM1AXUpwdyYdF+v5T/BEBztQFPqw4A3cBxTdZDBQyYUxfyt/+U2hbgvge6iHUBmCux5wt/XK/CLqlIkD7g9xr0yXDmSZRMd7jsemUgR3vWp3OUkzv0Bw/45Ab0Fz+BJpOhIsa6VeFNyBnbBjQrcX3azpcswZsE/io1C7s2C7eYJ7NYG7pVemR9YpEwfcOwYr7PTU3Dl0vHsEd4rgrlhP7J0aW+0pwf177zWg+dyhRBM6z3PButyXBPccsL7fL5SzcksgZeUl8Oot9C92A2zXhyWL4K4H3O28MohTxme6eRRwT8bxJfdfNRDLSXi4zJShCO6qVWvLdAceuL2qwR0cVKv9YngJPOQp4HGiw62S4J5cl8kjRATGfba6pKysCZEyoFGsXS+58gR3PeBu55URdspEAnfku4Km84x20O20P5PuKIK7cp97vQ05lpr7U4L79zUWekl2Dp3mmWA9YuvO3sAdOQXooszdfQ6alFxqFICo+DmRbgu1gn9iBHc94G7llZF2ykQC99wOvuR+Mj6wvIAHy9OXKIK7eo3MmH5uL9SM+Sld1eDekAam2npwli+Es1OsCIM7cOBUs8jNfQrO/eXQ736/ibSLHhjgY28qwV0TuNt4ZaSdMpHAHY9F/88UxXeNv0bHun4ioSiCu3ot9c3iz5XCT3XzvgpXNbiDXL1iXeCMJE19U521wuBe/mWof0Tk5oLnazntTYV2EOxq+i37iZUnuCsCd2hH4/95ZaSdMrHA3eD01MOHsXkFN/a8IdxRBPcK8bo3NaxcLq+V0ZF2j1WrGty3sFFNWxcAz63tD2eDBndo+gN3IEeneF3i5oKfU9JZpyqAkf5uQaLdffCn9iPBvcrAHdqCOWmMiH45NhK4I58W/ucbjx0s8xo+MErFTlqKIrhrVVWDe6kIjWrBFjRz4CtUwCXoXWlwRxa6JVzfnWCsudvBuNDprLMC7Q5jP2Uv56YS3HWBu7lXRtwpEw3c/7yNk/unSllwH1SRXUlRBHeCewRwRwzZf+ll2K7T7WANLhelwR3xWk8I3Fp0X/CoW5kZoMSGQLsXRRz9BHeN4G6eKyPulIkG7skeDu43b0TFlUfwgvs4Q9wpgjuVWXAHEwPrLS+Pnpu6FazBvlQa3JE8yH2BW9uchr23MD16+xv6rtDdFDVeqhHcNYG7sVemR97xHQ3cH3fD4L6+F5NWpuBxXmWIO0Vwp7IL7ovYsBosLw+e8FQMdyLRkji4J8C+6PbO8Lf2Ath5i9vqVQFwQ82H7xY1BnkKlSe4qwJ3U6/MJOCU+bNKwD25gy+5d/fEg5XcFXiY3JpKEdypDIN7GzassbDvBUvB+nuZyoN7Y0DvES40HdF55yhyNm5b8HZn0rC/ZIK7ZnA3zZUBnDLXPE9KNHDP9azj5L4Tz4PyOz7KZ0Q7iuBOZRfcc+BC5TG7y4MRfZvB+muIAO51QLnwSe6rMhb3JDkFFAmf5L4panEnuOsCd0OvTASnTMQV9+QRjsTebwys94N4+g3JjiK4UxkG9+QsNq683dUnsKsH26t5rDUCuCMBlGOhV7Zy6EEGA66VkBSd4MH1JTQBNu+nHsFd14r7KyOvDOCUuefZKRMR3HOvruLgPvg+Eqscx8f4O8mOIrhTWQb3bWxc20GvPhCqu4k0ArhD9qOWwPcV9gg5e75ngSIBc/rxl6W/1OopQb9CwL0pKyvuiZFX5p28UybmirvRkvvxOKjyDH+5GIybfUNRBHeCe2RwB7ePWh5+Cfo1ZgI1V5iPAe7Ids3ggZCXwL6nZdoNHQg5CrbrK86nQsB9JMq/nRjgbuKVieGUiQruLwxc7lejGMi/GhzwGjX6hqII7gT36OAOjsvylB4Q3EMtP59OY4B7cl4EmL+rEhqysupeq0kQmI/6FaOWqHpPBSsE3Kej/NuJAe4mXpkYTpmo4G7iQzkcfBzhJ4OfmXp4+yvBjiK4U5kG92QMG9hnq4uDVplQoSMf44A79Lryz6B3dRHt+4N7LWR3anE4aLtoWr/lz7hiwf15ZsDdxCsTwykTF9xPdBuQ+478saQPDYY3Sa6jCO5UxsEdzF25GBKo1sK0NpPGAXdooT+sV6YJbHvewyZZ6CUhqFcm9xxs15t1pELAfT7Kv50o4I57ZaI4ZeKCe3L/UDMa99w2+CDwhVxHEdypjIM7mNhol1/Yi118OS69+gb3pxAyFwLe1Fm07WapYkFNG3Nou95iKSsE3FujxHJHAXfcKxPFKRMZ3B/fMwD3q1Oyv5cbv3DBnaII7gR3XFvYwOzyKQZirrjPpZHAPYH2xOYD3tRTaNsenDLY7tT0p4DtnpF2ylQKuKfDMf7tRAF33CsDOGX+8D+8uOCe7Jksud+UzYQ0cuBzwZ0iuFOZB/dSERpYq9UCcQ3WdRCPe2EkGrhvRr7Vw2iq+byXFdldpNRKuHbXimC7/kJWVID7WrzdIwrBHfXKxHHKxAb3r4Mm5P5G0ub+wGRkD0h1FMGdyjy4JyDfWiW/3Ap4bU+r/SHAHXJ9L4TLNofj6+u8lIPcVu3hFn/h7wv13kqqAPfl8h3PZQfcUa9MHKdMbHA3w+PDO3K/FoME98PDnzsSiiK4U5kH98sByRbcHhoCL4aH4oE7ZHIPtz21BLfuxzrSAtUKtj0V/r5QPFZd4D5cvuWBGP924oB7DvTKxHHKRAf3jndG5N4l9WOZMnHfH0YJmacogjvBXRm4g8mBVlYHcJPkYsxl2ADgnkApJ/Odge7oxr/ZO9eHJpYkiregguJgVETUZCRBCHiB5SmJPAWUp4BoBOQpT4VVWfR6h/9+Ue91V3xQ1dM9XQnnfPTDdFdPGX5dc7qaGrShizW9YtLxVFsHJcnfF3rNjSkC3DuiOXycJ+BO9MpQnDJPCxDc1TCnsn1YtxZNriyyLDxTYDoI4A4B3JVK0mam1RYkS3u2hdrz8qxLcL/obL9ypHQfNWhTE6AdDo3ZCbeV/H3B4AREgLt/csjvXfzZcQTuNK8MxSnTVojgrj5wEHm97mkUqcLj9oZ7YDoI4A4B3JXyaJdszrbqPJzmYtg0T3N9gUtwpzW0OWOnI2QzNeZUq6ER70RZ3z+uEmq4MwaXWwS4q5MP5WZOEbiTvDL1TW6cMgLAfbqHZZZpuBAFt7M+A+w56W4KQQB3gLs0cFeVtKkt6zw7Z6+a/1ttBk7B3SeZR4IHNl5ntpgac42xbVLCXgadpOdUh3uwbXBUGeBOCH3VwQ+KI3AneWUOHTllBIC7t8ZbhoYnthNlhVVvP2xqUxAEcIcA7kfattiSg7YpaOwwHNKdwC24EzcO8zZc7kvUkDvN9QokNYQM9m0UzMhbtITJa75kgDvBJPTMwQ+KK3BfMcPtVpwyAsBdea95C1F33nKesM6lHq4Po+AOAdwhgPuXn/MYbWrlOg+vtljN/7XGUq7B/TJtVAudVlYT1JB3zQ1KbL15x3y4cfJZBqN+LBng3hfZz1degDvpDiZHThkR4H6vgUnuVq8pXVvnzWYEQAcB3CGAO2tqfTrPJnb8MHs6NXsrcA3uadrBgYzx5ubeLjnkUYMrTtst3DL+hcHfJ4dr9LIAGeBOCD7joErpDNwH5DplJIA7t5n7kc5Z65t+l/uybuDOVAjgDgHcGYW7z9Lpgk2s5nebDMffDZyDO/VTQ43pd/mMHHHOJNL1Rm8z/6IWcrg3jY4rA9wpq/7uFIH7ilynjAxwv7vDXY3X03ZmMl3LnEgdWrhDAHcI4P5N5bS5xTQePUdcZYNn6LzqQAC4bxF95oZNQnPkk6lmfSsfaWM2jpkN94DsCzL5fUEMuNe42BoKBncjXhk7ThkZ4K6mu7jL0T5sYx5P2fOAUQYCuEMA9/+pjDY3rXLpDO3ZLeaiKQkkgLtHtOvkzLpHrpEDnjfaizJN3DBUGB3VryCHu2/29coAd4oRrTgd+e+JO3AfEOuUEQLu6gl7PerqjbutPvWzZ1F7V0EQwB0CuDOrw1qHGYkk2WcM6JoDEeBONnEYBTxG8EVmw6X2sjF6mmGbHm6sEMGddCb4QeS/J+7AfUWsU0YKuKsR/pK8NjyxF/wPI12lCoIA7hDA/Zs6GklzK9apvDyMGKyudwoB92wieqTcojtH5g1f/nSF2N2lccvcmDH6u+42XDWUAe4xF6FLBncDXplXlmYmBNy9u7Uam5k1gzn09hV/AuswuEMAdwjg/p26aZM7sMUWgbFrNcs0ud08uKsF4sjFV0yNODdDj7fIdLhUk87EWVMjHgzSwx01HK0McI87iV0yuA9IdcqIqbir0i6NValdNDR6W32PxvBD6OAOAdwhgPt3qqFNTuc44yUqSRspPD/Ufs3mwT1OHTrXambANN3xbaEMO0odusKQ6bo1Rw+30nS0MsA9G+WeOC/AfUWqU0YOuHsv1jXWpWHkrYmxz2t9EumHwR0CuEMA9+9F7CFYZbGaH+TCezf8i4EgcFfvqWP3GrGt+L2McJeNR+s9oo69YGab8p4e7WzcdLQywJ1ydWpg5d4rqeAe2itjyykjB9yVqtdamZ6hsHsa70mTXp8f1NshgDsEcD+mpEU7C/XUYlAWuv64G4gC92Xy4DUG/jJ5m4xobaTZA/LoJrq5p68xwt00HqwQcKdtXsxf8yUX3AeEOmUkgTtlLj/tDDn5KcSgf05qbqqmUG+HAO4QwP0H6KO5hRM6Jodx6kInkuGCuJILZIG7oltXSsK/whpGsI1JC9H69F+bsvCDlTPCTT0vVHAnfmKqPj3gHtIr02PLKSMK3HUOqH5t7jKkex/TYv/jdb0xX7eh4A4B3CGA+w+qpM1Ox3HgZ6gr3R3K/Hy5OJAG7qP04cN2SfQ53G5gn/AzFZHH7wy72umrnHBbzMcqBNyp9+RG2xLSJbiH9MpYc8qIAnf1tkl3gRqmLvAL4KX1/z7UxPbDqTYFQQB3COD+g7Yt0u0CealDmJ/TNSFfsw1w9xinRZdClZU6OMaRoK/DShL5uahYOnuTE27OwhVEQsB9jPrNIRnlr4lTcA/nlblwOsBdlbbrr1FXP4fd7w7v/atOf7ARlNshgDsEcP8ZYcYskvVoBDg39igQCO7qNqM5ZU2IE6pz3axYY5bSKMaYQ0mIP8gH85xoO7cshCoE3P0UcRHmL50WcF+R6ZQRBu5qpSfMOj3eqV8hwPufb4amQo2zPgmIgwDuEMA9zOweacEF2SsTzOp1F+8oaQxEgrviOLErtY8QvptghdprLY0YjV6Ccu2y/3iGFW61jUiFgDvV43b0XzdCcncK7qG8MvacMtLAXb1pCNs4s7Z/bfgXlndveuX8wB9N62GHCHVUuO3tveEXuLkJArgD3AsU3FUfDay1Oo4zmjTO3tcBuVsnU2K3G3C/kmBkWu5Aawx/m7dtycxZy6L4LGMe+3pHRtNVvDu2Jqy0VJEC7i8DgeTuFtwHRDplxIG7ehGW3L+yddPOq5GhybW1J0daW5scGjk3VXvDyKMPa+/xQH36CNTPr9UP9H/YqW1q/zqHJlAgBHAHuBcouBNLw1rtv+OM1e5s4T59jNAE8szJFng74E49PPC3E1ln25LsZib0ZYtpxDppUKxzZDLO7B3UOW4lUCngfpu+ErfiUf2YuAX3EF6ZHouNB8WBuyFyXz/xH3QfPHDC22j7a3px+Ol/JvdGXk19A/XjArhDAHeAe6GCexltenp9/HJpg1QAABV2SURBVPY5613Oquo/X6AUeceVK3BP8+zYvWeZz+94mWLm84LNNMrO8ObCrYa3liSY4S7ZCVQKuPuMXkqJjVMB7kq7Y8rhOYuzkgfu6mnDoVzdGD4+3U9HnH7h/OTQQP8fO7VNXQ2kbQLAHQK4A9wLFdy3iFSt9fAi1oKfoVcGxzZJHNernIE7vY3930X3Fk4LFK9ogpvOt1qt5tEd3myKNzhHcv3rGW64j9J24pQC7oyeTUfajaa5jGNw35PolJEI7qLJfaftU+k3UH9de6NLb64AdwjgDnAvVHDvoPmk+/TKzjy87LxIKsT6MeLJvNSqQ3BXm1yyvk9lTW+0m53NiduWE4l7e22uiBzuZf4NW9baIEoBdy/GWo/GGrrT3dsazU9wX5HolBEJ7urNY8E1dyOmG4A7BHAHuBcquCsiA57Vengzc80zLSfWhZNL5N3AZ4eAO3DP9nEzLvOQcny09ZlOC8z7tvNojn0P1kQLBSazG/P8aDutXTwkpuKeHmRuZappH7TiVRNBVX6Cu7ZXxqZTRia4q5Wuw8IWwB0CuAPcCxbciccKY3r1fLbFYbDkN7VSL/6QUWvu9ZyCu1qeZefc7Pv7v//okB5dSOkkc7X9RLrMn1XjbtHvw+34eDWhE26JtSjFgLuqZq9KxcbqCZuB8aUvu6Q8BXdvT6BTRii4q8V2gDsEAdwB7nkJ7sTL07f1nr6hsfCPXt7+iQHaH3tWzXLefG0H6BDc1ZJO2s12V8V+/nnDjzf3pvRyuSIdQSYt6Myscb9k9Ofwno63XNMMt9K3FqQccH+nszK5pY+/gHcv2bz7z3Lna8V9RaBTRiq4q7e1AHcIArgD3PMR3JPE4216T/fntdY+dbNqI5Z8nk2rjuzqwXLRw+qbXIZr3KJ9ULAI7ukK3dzLvL9YVjSeXM1mlZd9fhAfLyrpPaN/2VTfXBSZ1JrTDrfyYvOd5aP3/SXcZHz82dK1ef1wc1l7QcoBd0/30uDi9zUvPyfXpezn7Vx6LrlV9HJh////f+UruGt6Zaw6ZcSCu2r7AHCHIIA7wD0Pwd2jeWWLNW+q/+jq9TUr5+Cu5mZEZHLmIJpUOhgUEe7Ec4sxygF36rcyDeUtuOt5ZexesikW3JW3tw5whyCAO8A978Cdenm6Lvxdc/P2/mnj7RTc1VZCQCKnbkeUSV6sU0C4g2M2YxQE7ukZgPuxBFyU55QRDO5HL6wH4A5BAHeAe96BO/GOzzuaj19NOXl5nghwV9fd53FjLLpceuk+3MSy1QgFgTu7Z1PhV9y1vDJ2nTKiwV2V1gLcIQjgDnDPM3CnNoTW/WNuDy9+o8pvhzEdgzt1W2SR2x9EmU01zrl91G6AksA9PQFwP6Y9cU4Z2eCu2kbqAO4QBHAHuOdXxZ04wQrtnUFl9NzeSidJy+DuGmUTHyNNJr/csS1o3HKAksCdeTPxaQB3Da9Ml12njHBwV+pFO8AdggDuAPe8AndFuygood1RcC4T8ZsrTzO42Ta4u0XZiLldqXRlQXO7LHD3KgDux9QkzSkjHtzV2ymAOwRJ0CNwd2htnhZwJ5JlXHuA8dlIX1y1zyl42wZ35V91CLKxyLMpfc1duIPL1sMTBe5qLAFw/1570pwy8sFdqaftAHcIcq8KcHdoGfoDLB/cy2gzDEG4UZ5Z7Nz+rnGle3BX/oKrFM7EHaRTutdVuH1J+9HJAndL/7PyF9z5fWVsO2XyAdzVX/11AHcIcq1ycHdotZwWcN+izXAhxJ/T6IrOqWNnMQWAu/Kq3GTwmVXPRT75m27C7Y7imilh4O5XANz/y969eEVx3XEAHyE9eAL7ACQ1Cmygjz3Wd7oi4AG6VNLNYgzhUVGgpAFJKw0aTtvTP79gX6ZRGXZnZ+7A5/MPcO/dmct37vzunR86ba3MXKfvkTwE9yj6/U3BHTJWl7vbVj4vwb0W7xuVC+2swqb1CujC/y+6hhDco2jnRgYX8MupjC6oQj2L89wH76bRt8CCe7S6JLj/wH5glTI5Ce7Rz7++L7hDprbk7nbdSCj2hB/cowexWrjcTjCaSmfXxcyP2hhGcI8aqX9U9N7maHZX1HTqh/cv19N5uxBacI8ORgT3N20EVimTl+AeRd+dqXoZwZ38qU5K3u2uVyb0U+QguMc8sbCtnX99aymUyUwUTt+3dIJ7NLaW7uU7X8py/ikMz6bb3clGSj0LLrhHlWXB/U2nq/mY63h7chPco+ji3DeCO2TnsuTdpq7zE9xX4jWxt73E0/E190vbrTyUpBTco1qqW1QXDjOegKZS3WbzajWtfoUX3Dvwdd5cB/f9sCpl8hTco2jj8S8Fd8jK6ojo3ZbZpAoNchDcx+I1sdhmlPu4oz/YyJ3Rlt4mDKU2zJXUymWWN6vZT0FDqU1BI/X0qoICDO7RzrLg/kb2DKtSJl/B/Wj45q4J7pCRTdm7LZWkfogcBPdCvEQ52+afqXbybJkX71hiDii4R9spfZxo/SCIKWgspR3JC2keehlicI8qNwT3/7kZVKVM3oJ7FF383WeCO2Ti7rrw3YbBxLa65SC4RzED5QftPiDc6dThKlfe+YHQkIJ7VOjqTmG5/cNaIHNQYSeFPaojPam+XQgyuEfNbsH9v05TK/Nnwf0t/vb1XwR3yMLwuPjdeqFMX2K/Qx6Ce0+8NpbbDxidOLzuH+P1d0fVoIL70dWw2+mTEi8NBzQJbXf8Y0wvx9LtUZjBPepfENz/YyOoSpk8BvcjD//4meAO6Wsoc2/VZIJpIA/BvRyvjXsJ5J7B5GP75vuesgIL7kcP1B0tIJlcKYQ1C2096GR3F6fT7k+gwT2qfnhPcP+3myFVyuQ0uEeFT794fE1wh7QdLIngrRVeJHkkRx6Ce8w2fpTE/4OVZN/qj1x+fwFPcME9Kkx3rIptfG8quFmosNKxkyG767XUH1NCDe5R1JgV3P9lP6RKmbwG9+Nb98tH314T3CFdq6+E8BbMJJp+8hDco3j/87sTiUl9CVaLTO6d9Jn78IJ7FI12XehIbN/sC3Iaqk50JLrP17N4Sgk3uBdqmyOC+7GNkCplchzcj/39q5/cF9wh1YSwY9H9tNbKmaxmZxvcYx66ndCbiKsJHQz5YOXkfYkhBvejG7OSeAXJ/OYH4c5DK4k/qUxm9HIh3OB+5LB4T3CP4tfKpFEpk/PgfuxX38/d/EZwh/RWu7o+Uup+ikXLYjnpl++5CO698RqZ2BmZ5fYLveefPo/zl8IM7kcOdpO8MRcmakHPQ4VmMckThV51ZXVQfdDBPYqGi8uCe+xamTQqZc5AcD928av9x78W3CEttecTz3o42Z2u4Q58yKXvSiyfZHqNXI3XyGfJ/cXmYDsJ48aLSsygundSnyqZDXpfb0LL7uMDz3MwDz2pryX0buHpcHY7cKdOvEnq2Q5z/+Xucx/cNwKqlDkjwf217x5+v3/99n3BHQhoXdAQpGe7p8U6rpEXQ0/OyBgc1hfaf0lUquWlu5/vtb0vd363XHWfvle1MjiSTXD/w/UTPUxlCOaux/Eolbbs3z7Rl/m6wD69+PCLR7/9zdz1b39x+/bNn4bpTyYCgMSNNgZO/bGBpd3S3TM1CIdDM/MtJ6zZp9O1fHV37NZg6x+YWP9Zuea2iWFqpTifQXDnHC1yeXoGOI+q5U8W44f2gYmxszgIo8+fzZz+7cNSceIwn7/5Vn1w8vRHtu+urLpfTnFRHfQWF1vL7Yu3DB8A8Hb9K08XTtq5uPRir9R/pkdhtbRXXItZ4nBl5lkj59VC/ZWemfV4+1XvrRfvNPvcJy14Uu4ZvBC7bube0qWnz6aHa9ZSAYD3qV3t2is+WPrRhtXx2UsDe13Pz0tsGz0s7+ztvrzw9jqH8dkHM5dvlceqZ6W71bHyTs/ux+vv6u6rmc2dxmHV7dHeRbXdHNoceLmw+PYEP7K08LJ4ubdysG2gAYCYjtf5Rp+MHTRK0xMTE5VSuXl1+9wu/hWmtoe3GqXXQ7FSOhqLrc+fVM92d5vnp7uZPR5vDx80m399PcxdpVKj2Rzuv2tYAAAAAAAAAAAAAAAAAAAAAAAAAAAAAAAAAAAAAAAAAAAAAAAAAAAAAAAAAAAAAAAAAAAAAAAAAAAAAAAAAAAAAAAAAAAAAAAAAAAAAAAAAAAAAAAAAAAAAAAAAAAAAAAAAAAAAAAAAAAAAAAAAAAAAAAAAAAAAAAAAAAAAAAAAAAAAAAAAAAAAAAAAAAAAAAAAAAAAAAAAAAAAAAAAAAAAAAAAAAAAAAAAAAAAAAAAAAAAAAAAAAAAAAAAAAAAAAAAAAAAAAAAAAAAAAAAAAAAAAAAAAAAAAAAAAAAAAAAAAAAAAAAAAAAAAAAAAAAAAAAAAAAAAAAAAAAAAAAPgne3AgAAAAAADk/9oIqqqqqqqqqqqqqqqqqqqqqqqqqqqqqqqqqqqqqqqqqqqqqqqqqqqqqqqqqqqqqqqqqqqqqqqqqqqqqqqqqqqqqqqqqqqqqqqqqqqqqqqqqqqqqqqqqqqqqqqqqqqqqqqqqqqqqqqqqqqqqqqqqqqqqqqqqqqqqqqqqqqqqqqqqqqqqqqqqqqqqqqqqqqqqqqqqqqqqqqqqqqqqqqqqqqqqqqqqqqqqqqqqqqqqqqqqqqqqqqqqqqqqqqqqqqqqqqqqqqqqqqqqqqqqqqqqqqqqqqqqqqqqqqqqqqqqqqqqqqqqqqqqqqqqqqqqqqqqqqqqqqqqqqqqqqqqqqqqqqqqqqqqqqqqqqqqqqqqqqqqqqqqqqqqqqqqqqqqqqqqqqqqqqqqqqqqqqqqqqqqqqqqqqqqqqqqqqqqqqqqqqqqqqqqqqqqqqqqqqqqqqqqqqqqqqqqqqqqqqqqqqqqqqqqqqqqqqqqqqqqqqqqqqqqqqqqqqqqqqqqqqqqqqqqqqqqqqqqqqqqqqqqqqqqqqqqqqqqqqqqqqqqqqqqqqqqqqqqqqqqqqqqqqqqqqqqqqqqqqqqqqqqqqqqqqqqqqqqqqqqqqqqqqqqqqqqqqqqqqqqqqqqqqqqqqqqqqqqqqqqqqqqqqqqqqqqqqqqqqqqqqqqqqqqqqqqqqqqqqqqirswYEAAAAAAJD/ayOoqqqqqqqqqqqqqqqqqqqqqqqqqqqqqqqqqqqqqqqqqqqqqqqqqqqqqqqqqqqqqqqqqqqqqqqqqqqqqqqqqqqqqqqqqqqqqqqqqqqqqqqqqqqqqqqqqqqqqqqqqqqqqqqqqqqqqqqqqqqqqqqqqqqqqqqqqqqqqqqqqqqqqqqqqqqqqqqqqqqqqqqqqqqqqqqqqqqqqqqqqqqqqqqqqqqqqqqqqqqqqqqqqqqqqqqqqqqqqqqqqqqqqqqqqqqqqqqqqqqqqqqqqqqqqqqqqqqqqqqqqqqqqqqqqqqqqqqqqqqqqqqqqqqqqqqqqqqqqqqqqqqqqqqqqqqqqqqqqqqqqqqqqqqqqqqqqqqqqqqqqqqqqqqqqqqqqqqqqqqqqqqqqqqqqqqqqqqqqqqqqqqqqqqqqqqqqqqqqqqqqqqqqqqqqqqqqqqqqqqqqqqqqqqqqqqqqqqqqqqqqqqqqqqqqqqqqqqqqqqqqqqqqqqqqqqqqqqqqqqqqqqqqqqqqqqqqqqqqqqqqqqqqqqqqqqqqqqqqqqqqqqqqqqqqqqqqqqqqqqqqqqqqqqqqqqqqqqqqqqqqqqqqqqqqqqqqqqqqqqqqqqqqqqqqqqqqqqqqqqqqqqqqqqqqqqqqqqqqqqqqqqqqqqqqqqqqqqqqqqqqqqqqqqqqqqqqqqqqqqqqrAHBwIAAAAAQP6vjaCqqqqqqqqqqqqqqqqqqqqqqqqqqqqqqqqqqqqqqqqqqqqqqqqqqqqqqqqqqqqqqqqqqqqqqqqqqqqqqqqqqqqqqqqqqqqqqqqqqqqqqqqqqqqqqqqqqqqqqqqqqqqqqqqqqqqqqqqqqqqqqqqqqqqqqqqqqqqqqqqqqqqqqqqqqqqqqqqqqqqqqqqqqqqqqqqqqqqqqqqqqqqqqqqqqqqqqqqqqqqqqqqqqqqqqqqqqqqqqqqqqqqqqqqqqqqqqqqqqqqqqqqqqqqqqqqqqqqqqqqqqqqqqqqqqqqqqqqqqqqqqqqqqqqqqqqqqqqqqqqqqqqqqqqqqqqqqqqqqqqqqqqqqqqqqqqqqqqqqqqqqqqqqqqqqqqqqqqqqqqqqqqqqqqqqqqqqqqqqqqqqqqqqqqqqqqqqqqqqqqqqqqqqqqqqqqqqqqqqqqqqqqqqqqqqqqqqqqqqqqqqqqqqqqqqqqqqqqqqqqqqqqqqqqqqqqqqqqqqqqqqqqqqqqqqqqqqqqqqqqqqqqqqqqqqqqqqqqqqqqqqqqqqqqqqqqqqqqqqqqqqqqqqqqqqqqqqqqqqqqqqqqqqqqqqqqqqqqqqqqqqqqqqqqqqqqqqqqqqqqqqqqqqqqqqqqqqqqqqqqqqqqqqqqqqqqqqqqqqqqqqqqqqqqqqqqqqqqqqqqqwh4cCAAAAAAA+b82gqqqqqqqqqqqqqqqqqqqqqqqqqqqqqqqqqqqqqqqqqqqqqqqqqqqqqqqqqqqqqqqqqqqqqqqqqqqqqqqqqqqqqqqqqqqqqqqqqqqqqqqqqqqqqqqqqqqqqqqqqqqqqqqqqqqqqqqqqqqqqqqqqqqqqqqqqqqqqqqqqqqqqqqqqqqqqqqqqqqqqqqqqqqqqqqqqqqqqqqqqqqqqqqqqqqqqqqqqqqqqqqqqqqqqqqqqqqqqqqqqqqqqqqqqqqqqqqqqqqqqqqqqqqqqqqqqqqqqqqqqqqqqqqqqqqqqqqqqqqqqqqqqqqqqqqqqqqqqqqqqqqqqqqqqqqqqqqqqqqqqqqqqqqqqqqqqqqqqqqqqqqqqqqqqqqqqqqqqqqqqqqqqqqqqqqqqqqqqqqqqqqqqqqqqqqqqqqqqqqqqqqqqqqqqqqqqqqqqqqqqqqqqqqqqqqqqqqqqqqqqqqqqqqqqqqqqqqqqqqqqqqqqqqqqqqqqqqqqqqqqqqqqqqqqqqqqqqqqqqqqqqqqqqqqqqqqqqqqqqqqqqqqqqqqqqqqqqqqqqqqqqqqqqqqqqqqqqqqqqqqqqqqqqqqqqqqqqqqqqqqqqqqqqqqqqqqqqqqqqqqqqqqqqqqqqqqqqqqqqqqqqqqqqqqqqqqqqqqqqqqqqqqqqqqqqqqqqqqqqqqpKe3AgAAAAACDI33qEBSoAAAAAAAAAAAAAAAAAAAAAAAAAAAAAAAAAAAAAAAAAAAAAAAAAAAAAAAAAAAAAAAAAAAAAAAAAAAAAAAAAAAAAAAAAAAAAAAAAAAAAAAAAAAAAAAAAAAAAAAAAAABgBPLMh16N66NvAAAAAElFTkSuQmCC;" vertex="1" parent="1">
          <mxGeometry x="945" y="656" width="147" height="98" as="geometry" />
        </mxCell>
      </root>
    </mxGraphModel>
  </diagram>
</mxfile>
